<svg width="768" height="767" viewBox="0 0 768 767" fill="none" xmlns="http://www.w3.org/2000/svg">
<path d="M384.452 0C332.88 0 283.764 10.174 239.208 28.4172V409.418C243.418 491.512 311.479 556.766 394.626 556.766C444.794 556.766 489.7 532.91 518.118 495.722C511.101 535.015 492.156 572.553 461.985 603.075C418.482 646.578 356.034 670.785 294.639 657.805C286.57 656.051 278.852 653.946 271.485 651.139C225.526 634.65 186.233 600.269 159.219 560.625C127.294 513.614 110.103 457.832 110.103 400.998C110.103 397.139 110.103 393.63 110.454 389.771V115.423C42.744 184.536 0.995361 278.909 0.995361 383.456C0.995361 595.357 172.551 766.913 384.452 766.913C596.353 766.913 767.908 595.357 767.908 383.456C767.908 171.555 596.002 0 384.452 0Z" fill="#00938D"/>
<path d="M409.361 117.176V55.0796L274.642 189.798C274.642 189.798 407.256 322.411 409.361 324.516C405.501 320.657 409.361 291.889 409.361 286.276C409.361 272.945 409.361 259.262 409.361 245.931C491.455 244.527 550.394 334.69 561.971 406.61C574.601 486.249 551.096 576.763 493.209 634.299C471.808 655.699 447.601 672.188 421.64 684.116C565.83 670.434 679.148 548.696 679.148 400.997C679.148 249.439 559.515 124.895 409.361 117.176Z" fill="#55BDBD"/>
<path opacity="0.07" d="M655.643 112.265L581.267 186.641C641.259 238.914 679.148 315.746 679.148 401.348C679.148 549.047 565.83 670.785 421.64 684.467C447.601 672.539 471.808 656.05 493.209 634.65C567.935 559.923 584.775 449.061 544.079 358.196C534.957 326.271 515.311 298.204 489.7 278.207L271.485 496.423C299.902 533.26 344.457 557.116 394.626 557.116C444.794 557.116 489.7 533.26 518.118 496.072C511.101 535.365 492.156 572.904 461.985 603.426C418.482 646.929 356.035 671.136 294.639 658.155C286.57 656.401 278.852 654.296 271.485 651.489C236.402 638.859 205.178 615.705 180.269 587.989L113.612 654.647C263.416 804.451 506.189 804.451 655.643 654.647C805.096 504.843 805.096 262.069 655.643 112.265Z" fill="black"/>
</svg>
