<svg xmlns="http://www.w3.org/2000/svg" fill="none" viewBox="0 0 10177 737"><mask id="A" x="0" y="0" width="10177" height="737" mask-type="alpha" maskUnits="userSpaceOnUse"><rect width="10177" height="737" rx="100" fill="#fff"/></mask><g fill="#dcdcdc" fill-opacity=".58" mask="url(#A)"><path d="M905.56 448.54c-22.9 0-41.438-18.55-41.438-41.438s18.55-41.438 41.438-41.438 41.438 18.548 41.438 41.438-18.548 41.438-41.438 41.438zm0-71.037c-16.378 0-29.598 13.22-29.598 29.6A29.56 29.56 0 0 0 905.56 436.7c16.378 0 29.6-13.22 29.6-29.598s-13.22-29.6-29.6-29.6zM5096.7 549.37L4873.53 326.2l223.17-223.17 223.17 223.17-223.17 223.17zM4890.1 326.2l206.6 206.6 206.6-206.6-206.6-206.6-206.6 206.6zM2608.5 122.96h-140.1L2538.45 1.6l70.05 121.35zm-119.57-11.84h99.05l-49.53-85.836-49.52 85.836zm1309.57 347l-8.37 8.372 102.55 102.55 8.38-8.372-102.56-102.55z"/><path d="M3892.7 458.26L3790.15 560.8l8.37 8.372 102.56-102.55-8.38-8.372zM2307 1227.8c-52.9 0-104.4-10.26-153.32-30.58-48.94-20.33-92.55-49.53-130.04-86.83L421.34-491.9c-37.294-37.295-66.696-81.1-86.823-130.04-20.324-48.936-30.585-100.44-30.585-153.32s10.26-104.38 30.585-153.32 49.53-92.544 86.823-130.03 81.1-66.7 130.04-86.82c48.937-20.33 100.44-30.6 153.32-30.6s104.38 10.26 153.32 30.6c48.936 20.32 92.545 49.52 130.04 86.82l1602.3 1602.3c37.3 37.294 66.7 81.1 86.83 130.04 20.32 48.936 30.58 100.44 30.58 153.32s-10.26 104.38-30.58 153.32c-20.33 48.933-49.53 92.543-86.83 130.03-37.3 37.3-81.1 66.7-130.03 86.83-48.94 20.32-100.44 30.58-153.32 30.58zM704.7-1163.8c-51.304 0-101.42 9.87-148.78 29.6-47.358 19.74-89.783 47.95-126.1 84.26s-64.723 78.732-84.258 126.1c-19.732 47.358-29.598 97.478-29.598 148.78s9.866 101.42 29.598 148.78 47.95 89.782 84.258 126.1l1602.3 1602.3c36.3 36.3 78.74 64.72 126.1 84.25 47.36 19.74 97.48 29.6 148.8 29.6 51.3 0 101.42-9.86 148.78-29.6 47.36-19.73 89.78-47.95 126.1-84.25 36.3-36.3 64.72-78.74 84.26-126.1 19.73-47.358 29.6-97.478 29.6-148.78s-9.86-101.42-29.6-148.78-47.95-89.782-84.26-126.1L979.6-1049.94c-36.308-36.3-78.733-64.72-126.1-84.26-47.357-19.73-97.478-29.6-148.78-29.6zM5866.3 353.82c-52.88 0-104.38-10.26-153.32-30.585-48.93-20.324-92.54-49.528-130.03-86.822l-731.1-731.1c-37.3-37.294-66.7-81.1-86.82-130.04s-30.6-100.44-30.6-153.32 10.26-104.38 30.6-153.32c20.32-48.936 49.53-92.543 86.82-130.03 37.3-37.3 81.1-66.7 130.04-86.83 48.94-20.32 100.44-30.58 153.32-30.58s104.38 10.26 153.32 30.58c48.94 20.33 92.55 49.53 130.04 86.83l731.08 731.08c37.3 37.294 66.7 81.1 86.82 130.04 20.13 48.937 30.6 100.44 30.6 153.32s-10.26 104.38-30.6 153.32c-20.32 48.936-49.52 92.545-86.82 130.04-37.3 37.294-81.1 66.695-130.03 86.822-48.94 20.324-100.44 30.585-153.33 30.585zm-731.08-1520.4c-51.3 0-101.42 9.87-148.78 29.6s-89.8 47.95-126.1 84.26c-36.3 36.3-64.73 78.73-84.26 126.1-19.54 47.357-29.6 97.478-29.6 148.78s9.87 101.42 29.6 148.78 47.95 89.783 84.26 126.1l731.08 731.1c36.3 36.307 78.74 64.722 126.1 84.257 47.36 19.733 97.48 29.6 148.78 29.6s101.43-9.866 148.8-29.6c47.35-19.732 89.78-47.95 126.1-84.257 36.3-36.308 64.72-78.733 84.25-126.1 19.54-47.358 29.6-97.478 29.6-148.78s-9.86-101.42-29.6-148.78c-19.73-47.358-47.95-89.782-84.25-126.1l-731.1-731.08c-36.3-36.3-78.73-64.72-126.1-84.26-47.36-19.73-97.48-29.6-148.78-29.6zm-97.92 1904c-.6 0-1.38 0-1.98-.197l-1.77-.592c-.6-.197-1.2-.592-1.78-.987s-.98-.8-1.58-1.184c-1.77-1.776-2.96-4.34-2.96-6.906s1-5.13 2.96-6.906c.4-.395 1-.8 1.58-1.184s1.2-.592 1.78-.987l1.77-.592c3.16-.592 6.7.395 8.88 2.763 1.78 1.775 2.96 4.34 2.96 6.906s-.98 5.13-2.96 6.906c-.4.395-.98.8-1.58 1.184-.6.395-1.18.592-1.77.987l-1.78.592c-.4 0-.98.197-1.77.197zm-58.8-58.8c-2.56 0-5.13-.987-6.9-2.96-1.78-1.776-2.96-4.34-2.96-6.907 0-.6 0-1.38.2-1.973l.6-1.776c.2-.592.6-1.184.98-1.776.4-.592.8-.986 1.2-1.578 2.37-2.368 5.72-3.355 8.88-2.763l1.77.592c.6.197 1.2.592 1.78.987s1 .8 1.58 1.184c.4.395.8.986 1.18 1.578.4.592.6 1.184 1 1.776l.6 1.776c.2.592.2 1.184.2 1.973 0 2.566-1 5.13-2.96 6.907-.4.394-1 .8-1.58 1.184s-1.18.592-1.78.986l-1.77.592c-.6 0-1.2.198-1.98.198zm-340.2 330.28c-3.95-3.95-3.95-10.063 0-14 3.75-3.946 10.06-3.946 14 0s3.94 10.06 0 14c-1.98 1.97-4.34 2.96-6.9 2.96-2.76 0-5.13-1-7.1-2.96zm47.55-47.555c-3.94-3.946-3.94-10.063 0-14 3.95-3.946 10.07-3.946 14 0 3.95 3.947 3.95 10.064 0 14-1.97 1.973-4.34 2.96-6.9 2.96-2.57-.197-5.13-1.184-7.1-2.96zm47.56-47.752a10.13 10.13 0 0 1 0-14.01c3.94-3.947 10.06-3.947 14 0s3.94 10.063 0 14c-1.98 1.973-4.34 2.96-6.9 2.96a10.01 10.01 0 0 1-7.1-2.96zm47.75-47.555a10.13 10.13 0 0 1 0-14.01c3.95-3.947 10.06-3.947 14 0s3.95 10.063 0 14c-1.97 1.973-4.34 2.96-6.9 2.96-2.76 0-5.13-.987-7.1-2.96zm47.56-47.555c-3.95-3.75-3.95-10.064 0-14 3.74-3.946 10.06-3.946 14 0s3.94 10.064 0 14c-1.98 1.973-4.35 2.96-6.9 2.96-2.57-.198-5.13-.987-7.1-2.96zm47.55-47.753c-3.95-3.75-3.95-10.063 0-14s10.06-3.946 14 0c3.95 3.75 3.95 10.064 0 14-1.97 1.973-4.34 2.96-6.9 2.96a10.01 10.01 0 0 1-7.1-2.96zm47.75-47.555a10.13 10.13 0 0 1 0-14.01c3.95-3.946 10.07-3.946 14 0 3.95 3.75 3.95 10.064 0 14-1.97 1.973-4.34 2.96-6.9 2.96-2.77 0-5.33-.987-7.1-2.96zm-4.32-103.555c-2.56 0-5.13-.987-6.9-2.96-.4-.395-.8-.987-1.2-1.58s-.6-1.183-1-1.775l-.6-1.776c-.2-.592-.2-1.184-.2-1.974 0-.6 0-1.38.2-1.973l.6-1.776c.2-.592.6-1.184 1-1.776s.8-.986 1.2-1.578.98-.8 1.57-1.184c.6-.395 1.2-.592 1.78-.987l1.78-.592c3.15-.592 6.7.395 8.88 2.763.4.395.78.986 1.18 1.578s.6 1.184 1 1.776l.6 1.776c.2.592.2 1.382.2 1.973s0 1.382-.2 1.974l-.6 1.776c-.2.592-.6 1.183-1 1.775l-1.18 1.58c-1.98 1.973-4.54 2.96-7.1 2.96zm-340.2 330.52c-3.94-3.947-3.94-10.064 0-14 3.75-3.947 10.07-3.947 14.02 0 3.94 3.946 3.94 10.063 0 14-1.98 1.973-4.54 2.96-6.9 2.96-2.76 0-5.13-.987-7.1-2.96zm47.56-47.555c-3.75-3.75-3.75-10.064 0-14 3.95-3.947 10.06-3.947 14 0s3.95 10.063 0 14c-1.97 1.973-4.54 2.96-6.9 2.96-2.56-.198-5.13-1.184-7.1-2.96zm47.56-47.753a10.13 10.13 0 0 1 0-14.01c3.94-3.946 10.06-3.946 14 0 3.74 3.75 3.74 10.064 0 14-1.98 1.973-4.54 2.96-6.9 2.96-2.57 0-5.13-.987-7.1-2.96zm47.75-47.555c-3.95-3.946-3.95-10.063 0-14 3.75-3.75 10.06-3.75 14 0 3.94 3.947 3.94 10.064 0 14-1.98 1.973-4.54 2.96-6.9 2.96-2.76 0-5.33-.987-7.1-2.96zm47.55-47.555c-3.94-3.946-3.94-10.063 0-14 3.75-3.946 10.07-3.946 14 0 3.95 3.947 3.95 10.064 0 14-1.97 1.973-4.54 2.96-6.9 2.96-2.57-.197-5.13-1.184-7.1-2.96zm47.56-47.752c-3.95-3.947-3.95-10.064 0-14 3.94-3.947 10.06-3.947 14 0s3.94 10.063 0 14c-1.98 1.973-4.54 2.96-6.9 2.96a10.01 10.01 0 0 1-7.1-2.96zm47.75-47.556a10.13 10.13 0 0 1 0-14.01c3.95-3.946 10.06-3.946 14 0a10.13 10.13 0 0 1 0 14.01c-1.97 1.974-4.54 2.96-6.9 2.96-2.76 0-5.32-.986-7.1-2.96zm-4.33-103.594c-.6 0-1.2 0-1.97-.197l-1.78-.592c-.6-.197-1.18-.592-1.78-.987s-.98-.8-1.57-1.184c-.4-.394-.8-.986-1.2-1.578s-.6-1.184-1-1.776l-.6-1.776c-.2-.592-.2-1.38-.2-1.973s0-1.184.2-1.974l.6-1.775c.2-.592.6-1.184 1-1.776s.8-.987 1.2-1.58c.4-.395.98-.8 1.57-1.184.6-.394 1.2-.592 1.78-.986l1.78-.592a10 10 0 0 1 8.88 2.762c.4.395.78.987 1.18 1.58s.6 1.184 1 1.776l.6 1.775c.2.592.2 1.382.2 1.974s-.01 1.38-.2 1.973l-.6 1.776c-.2.592-.6 1.184-1 1.776l-1.18 1.578c-1.78 1.974-4.35 2.96-6.9 2.96zm-340.2 330.52c-3.94-3.947-3.94-10.064 0-14 3.95-3.946 10.07-3.946 14 0 3.95 3.946 3.95 10.063 0 14-1.97 1.973-4.54 2.96-6.9 2.96-2.77-.197-5.33-1.184-7.1-2.96zm47.56-47.752a10.13 10.13 0 0 1 0-14.01c3.94-3.947 10.06-3.947 14 0a10.13 10.13 0 0 1 0 14.01c-1.98 1.973-4.54 2.96-6.9 2.96-2.76 0-5.13-.987-7.1-2.96zm47.55-47.555a10.13 10.13 0 0 1 0-14.01c3.95-3.947 10.07-3.947 14 0a10.13 10.13 0 0 1 0 14.01c-1.97 1.973-4.54 2.96-6.9 2.96a9.99 9.99 0 0 1-7.1-2.96zm47.75-47.555c-3.94-3.75-3.94-10.064 0-14 3.75-3.946 10.07-3.946 14.02 0 3.94 3.947 3.94 10.064 0 14-1.98 1.973-4.54 2.96-6.9 2.96-2.76 0-5.33-.986-7.1-2.96zm47.56-47.556c-3.95-3.946-3.95-10.063 0-14s10.06-3.946 14 0 3.95 10.064 0 14c-1.97 1.974-4.54 2.96-6.9 2.96-2.76-.197-5.13-1.184-7.1-2.96zm47.56-47.752c-3.95-3.947-3.95-10.064 0-14 3.94-3.946 10.06-3.946 14 0a10.15 10.15 0 0 1 0 14.01c-1.98 1.973-4.54 2.96-6.9 2.96-2.57 0-5.13-.987-7.1-2.96zm47.55-47.555c-3.95-3.947-3.95-10.064 0-14a10.13 10.13 0 0 1 14.01 0 10.13 10.13 0 0 1 0 14.01c-1.97 1.973-4.54 2.96-6.9 2.96a10.01 10.01 0 0 1-7.1-2.96zm-4.13-103.595c-2.57 0-5.13-.987-6.9-2.96-.4-.395-.8-.987-1.18-1.58-.4-.592-.6-1.184-1-1.776l-.6-1.776c-.2-.592-.2-1.38-.2-1.973s0-1.38.2-1.973l.6-1.776c.2-.592.6-1.184 1-1.776s.8-.987 1.18-1.58c1.78-1.776 4.34-2.96 6.9-2.96s5.13.987 6.9 2.96c.4.395.8.987 1.2 1.58s.6 1.184.98 1.776l.6 1.776c.2.592.2 1.38.2 1.973s0 1.184-.2 1.973l-.6 1.776c-.2.592-.6 1.184-.98 1.776-.4.592-.8.987-1.2 1.58-.4.394-.98.8-1.58 1.184s-1.18.592-1.77.986l-1.78.592c-.4.198-1.18.198-1.77.198zm-340.4 330.5c-3.94-3.75-3.94-10.064 0-14 3.95-3.947 10.07-3.947 14 0 3.95 3.946 3.95 10.063 0 14-1.97 1.973-4.34 2.96-6.9 2.96-2.57-.197-5.13-1.184-7.1-2.96zm47.75-47.753c-3.94-3.947-3.94-10.064 0-14 3.95-3.946 10.07-3.946 14 0 3.95 3.946 3.95 10.063 0 14-1.97 1.973-4.34 2.96-6.9 2.96-2.76 0-5.13-.987-7.1-2.96zm47.56-47.555c-3.95-3.947-3.95-10.064 0-14 3.75-3.75 10.06-3.75 14 0 3.95 3.946 3.95 10.063 0 14-1.97 1.973-4.54 2.96-6.9 2.96a10.01 10.01 0 0 1-7.1-2.96zm47.56-47.555c-3.95-3.947-3.95-10.064 0-14 3.74-3.75 10.06-3.75 14 0 3.94 3.946 3.94 10.063 0 14-1.98 1.973-4.54 2.96-6.9 2.96-2.57-.198-5.13-.987-7.1-2.96zm47.75-47.752c-3.95-3.947-3.95-10.064 0-14 3.94-3.946 10.06-3.946 14 0s3.94 10.064 0 14c-1.98 1.973-4.54 2.96-6.9 2.96-2.76 0-5.33-.986-7.1-2.96zm47.55-47.556c-3.94-3.946-3.94-10.063 0-14 3.95-3.946 10.07-3.946 14 0a10.13 10.13 0 0 1 0 14.01c-1.97 1.974-4.54 2.96-6.9 2.96a9.99 9.99 0 0 1-7.1-2.96zm47.56-47.555c-3.95-3.946-3.95-10.063 0-14 3.75-3.946 10.06-3.946 14 0s3.94 10.064 0 14c-1.98 1.973-4.34 2.96-6.9 2.96-2.56-.197-5.13-.987-7.1-2.96zM4743.3 443.2c-2.56 0-5.13-.986-6.9-2.96-.4-.394-.8-.986-1.2-1.578s-.6-1.184-.98-1.776l-.6-1.776c-.2-.592-.2-1.38-.2-1.973 0-2.566.98-5.13 2.96-6.907 1.77-1.776 4.34-2.96 6.9-2.96 2.57 0 5.13.987 6.9 2.96 1.78 1.776 2.96 4.34 2.96 6.907 0 .592 0 1.38-.2 1.973l-.6 1.776c-.2.592-.6 1.184-1 1.776s-.8.986-1.18 1.578c-1.78 1.974-4.34 2.96-6.9 2.96zm-340.4 330.33c-3.95-3.947-3.95-10.064 0-14s10.06-3.947 14 0 3.95 10.063 0 14c-1.97 1.973-4.34 2.96-6.9 2.96a10.01 10.01 0 0 1-7.1-2.959zm47.75-47.556c-3.94-3.946-3.94-10.063 0-14 3.95-3.947 10.07-3.947 14 0 3.95 3.946 3.95 10.063 0 14-1.97 1.974-4.34 2.96-6.9 2.96-2.77 0-5.33-.986-7.1-2.96zm47.56-47.555a10.13 10.13 0 0 1 0-14.01c3.94-3.946 10.06-3.946 14 0s3.94 10.064 0 14c-1.98 1.974-4.34 2.96-6.9 2.96-2.56-.197-5.13-.986-7.1-2.96zm47.55-47.555a10.13 10.13 0 0 1 0-14.01c3.95-3.946 10.07-3.946 14 0a10.13 10.13 0 0 1 0 14.01c-1.97 1.973-4.34 2.96-6.9 2.96-2.57-.197-5.13-1.184-7.1-2.96zm47.75-47.752c-3.94-3.75-3.94-10.064 0-14 3.95-3.947 10.07-3.947 14.02 0 3.94 3.946 3.94 10.063 0 14-1.98 1.973-4.35 2.96-6.9 2.96-2.76 0-5.33-.987-7.1-2.96zm47.56-47.555c-3.95-3.75-3.95-10.064 0-14s10.06-3.947 14 0c3.95 3.75 3.95 10.063 0 14-1.97 1.973-4.34 2.96-6.9 2.96-2.76 0-5.13-.987-7.1-2.96zm47.56-47.555a10.13 10.13 0 0 1 0-14.01c3.94-3.947 10.06-3.947 14 0 3.94 3.75 3.94 10.063 0 14-1.98 1.973-4.54 2.96-6.9 2.96-2.57-.198-5.13-1.184-7.1-2.96zM4684.5 384.4c-.6 0-1.38 0-1.97-.198l-1.78-.6c-.6-.198-1.18-.592-1.77-.987-.6-.395-1-.8-1.58-1.184-.4-.395-.8-.987-1.2-1.58s-.6-1.184-.98-1.776l-.6-1.776c-.2-.592-.2-1.183-.2-1.973 0-.592 0-1.38.2-1.973l.6-1.776c.2-.592.6-1.184.98-1.776.4-.592.8-.986 1.2-1.578s.98-.8 1.58-1.184c.6-.395 1.18-.592 1.77-.987l1.78-.592c1.18-.197 2.56-.197 3.94 0l1.78.592c.6.197 1.18.592 1.78.987s.98.8 1.57 1.184c.6.394.8.986 1.2 1.578s.6 1.184 1 1.776l.6 1.776c.2.592.2 1.38.2 1.973s.01 1.38-.2 1.973l-.6 1.776c-.2.592-.6 1.184-1 1.776s-.8.987-1.2 1.58c-.4.395-.98.8-1.57 1.184-.6.395-1.2.592-1.78.987l-1.78.6c-.78.198-1.38.198-1.97.198zm-340.4 330.33c-3.95-3.946-3.95-10.063 0-14 3.75-3.946 10.06-3.946 14 0s3.94 10.064 0 14c-1.98 1.974-4.34 2.96-6.9 2.96s-5.13-.986-7.1-2.96zm47.75-47.555a10.13 10.13 0 0 1 0-14.01c3.95-3.946 10.06-3.946 14 0s3.95 10.064 0 14c-1.97 1.973-4.34 2.96-6.9 2.96-2.76 0-5.32-.987-7.1-2.96zm47.55-47.555a10.15 10.15 0 0 1 0-14.01c3.95-3.946 10.07-3.946 14.02 0 3.94 3.75 3.94 10.064 0 14-1.98 1.973-4.35 2.96-6.9 2.96-2.76-.197-5.13-.987-7.1-2.96zm47.56-47.752c-3.95-3.947-3.95-10.064 0-14 3.75-3.75 10.06-3.75 14 0 3.95 3.946 3.95 10.063 0 14-1.97 1.973-4.34 2.96-6.9 2.96a10.01 10.01 0 0 1-7.1-2.96zm47.56-47.555c-3.95-3.947-3.95-10.064 0-14 3.74-3.75 10.06-3.75 14 0 3.94 3.946 3.94 10.063 0 14-1.98 1.973-4.35 2.96-6.9 2.96a9.99 9.99 0 0 1-7.1-2.96zm47.75-47.555c-3.95-3.947-3.95-10.064 0-14 3.94-3.947 10.06-3.947 14 0s3.94 10.063 0 14c-1.98 1.973-4.34 2.96-6.9 2.96-2.76-.197-5.13-.986-7.1-2.96zm47.55-47.556a10.13 10.13 0 0 1 0-14.009c3.95-3.947 10.07-3.947 14 0a10.13 10.13 0 0 1 0 14.009c-1.97 1.974-4.34 2.96-6.9 2.96-2.57-.197-5.13-1.184-7.1-2.96z"/><path d="M4625.7 325.6c-2.57 0-5.13-.987-6.9-2.96-.4-.395-.8-.987-1.18-1.58-.4-.592-.6-1.183-1-1.775l-.6-1.776c-.2-.592-.2-1.382-.2-1.974s0-1.183.2-1.973l.6-1.776c.2-.592.6-1.184 1-1.776l1.18-1.578c.4-.395 1-.8 1.58-1.184s1.18-.592 1.78-.8l1.77-.592c1.2-.198 2.57-.198 3.75 0l1.78.592c.6.197 1.18.6 1.77.8.6.394 1 .8 1.58 1.184.4.395.8.986 1.2 1.578s.6 1.184.98 1.776l.6 1.776c.2.592.2 1.184.2 1.973 0 2.566-.98 5.13-2.96 6.907-.4.394-.98.8-1.58 1.184s-1.18.592-1.77.986l-1.78.592c-.8.395-1.38.395-1.97.395zm-340.4 330.33c-3.94-3.947-3.94-10.064 0-14 3.95-3.947 10.07-3.947 14 0 3.95 3.946 3.95 10.063 0 14-1.97 1.973-4.53 2.96-6.9 2.96a9.99 9.99 0 0 1-7.1-2.96zm47.56-47.556a10.13 10.13 0 0 1 0-14.01c3.95-3.946 10.06-3.946 14 0a10.13 10.13 0 0 1 0 14.01c-1.97 1.974-4.54 2.96-6.9 2.96-2.56 0-5.13-.986-7.1-2.96zm47.75-47.555a10.13 10.13 0 0 1 0-14.01c3.95-3.946 10.07-3.946 14 0a10.13 10.13 0 0 1 0 14.01c-1.97 1.973-4.54 2.96-6.9 2.96-2.77-.197-5.33-1.184-7.1-2.96zm47.56-47.752c-3.95-3.947-3.95-10.064 0-14 3.75-3.947 10.06-3.947 14 0s3.94 10.063 0 14c-1.98 1.973-4.54 2.96-6.9 2.96a10.01 10.01 0 0 1-7.1-2.96zm47.55-47.555c-3.94-3.947-3.94-10.064 0-14 3.95-3.947 10.07-3.947 14 0 3.95 3.946 3.95 10.063 0 14-1.97 1.973-4.54 2.96-6.9 2.96-2.57 0-5.13-.987-7.1-2.96zm47.75-47.555a10.15 10.15 0 0 1 0-14.01c3.95-3.947 10.07-3.947 14.02 0a10.15 10.15 0 0 1 0 14.01c-1.98 1.973-4.54 2.96-6.9 2.96-2.76-.198-5.33-.987-7.1-2.96zm47.56-47.753a10.13 10.13 0 0 1 0-14.01c3.95-3.946 10.06-3.946 14 0 3.75 3.75 3.75 10.064 0 14-1.97 1.973-4.54 2.96-6.9 2.96-2.76 0-5.13-.987-7.1-2.96zM4244.7 706.44c-.6 0-1.2 0-1.98-.198l-1.77-.592c-.6-.197-1.2-.592-1.78-.986s-1-.8-1.58-1.184c-.4-.395-.8-.987-1.18-1.58-.4-.592-.6-1.184-1-1.776l-.6-1.776c-.2-.592-.2-1.38-.2-1.973s0-1.184.2-1.973l.6-1.776c.2-.592.6-1.184 1-1.776s.8-.986 1.18-1.578c.4-.395 1-.8 1.58-1.185s1.2-.592 1.78-.986l1.77-.592c1.2-.197 2.57-.197 3.75 0l1.78.592c.6.197 1.18.592 1.77.986.6.395 1 .8 1.58 1.185.4.394.8.986 1.2 1.578s.6 1.184.98 1.776l.6 1.776c.2.592.2 1.38.2 1.973s0 1.38-.2 1.973l-.6 1.776c-.2.592-.6 1.184-.98 1.776-.4.592-.8.987-1.2 1.58-.4.394-.98.8-1.58 1.184s-1.18.592-1.77.986l-1.78.592c-.4.198-1.18.198-1.77.198zm322-439.64c-.6 0-1.2.001-1.97-.197l-1.78-.592c-.6-.197-1.18-.592-1.78-.986s-.98-.8-1.57-1.184c-.4-.395-.8-.987-1.2-1.58s-.6-1.184-1-1.776l-.6-1.776c-.2-.592-.2-1.184-.2-1.973s0-1.38.2-1.973l.6-1.776c.2-.592.6-1.184 1-1.776s.8-.987 1.2-1.58c.4-.394.98-.986 1.57-1.184.6-.394 1.2-.6 1.78-.986l1.78-.592a11.85 11.85 0 0 1 3.74 0l1.78.592c.6.197 1.18.592 1.78.986s.98.8 1.58 1.184c.4.395.78.987 1.18 1.58s.6 1.184 1 1.776l.6 1.776c.2.592.2 1.38.2 1.973s.01 1.184-.2 1.973l-.6 1.776c-.2.592-.6 1.184-1 1.776l-1.18 1.58c-1.58 1.776-4.15 2.96-6.9 2.96zm-340.2 330.32c-3.94-3.947-3.94-10.064 0-14 3.95-3.947 10.07-3.947 14 0 3.95 3.946 3.95 10.063 0 14-1.97 1.973-4.54 2.96-6.9 2.96-2.57 0-5.13-.987-7.1-2.96zm47.56-47.555c-3.95-3.947-3.95-10.064 0-14 3.94-3.947 10.06-3.947 14 0a10.13 10.13 0 0 1 0 14.01c-1.98 1.973-4.54 2.96-6.9 2.96a10.01 10.01 0 0 1-7.1-2.96zM4321.8 502c-3.95-3.947-3.95-10.064 0-14 3.75-3.75 10.06-3.75 14 0 3.95 3.946 3.95 10.063 0 14-1.97 1.973-4.54 2.96-6.9 2.96-2.76-.198-5.32-1.184-7.1-2.96zm47.55-47.753c-3.94-3.946-3.94-10.063 0-14 3.75-3.75 10.07-3.75 14.02 0 3.94 3.947 3.94 10.064 0 14-1.98 1.973-4.54 2.96-6.9 2.96-2.76 0-5.13-.987-7.1-2.96zm47.56-47.555c-3.95-3.946-3.95-10.063 0-14s10.06-3.946 14 0 3.95 10.064 0 14c-1.97 1.973-4.54 2.96-6.9 2.96a10.01 10.01 0 0 1-7.1-2.96zm47.75-47.555a10.13 10.13 0 0 1 0-14.01c3.95-3.946 10.07-3.946 14 0a10.13 10.13 0 0 1 0 14.01c-1.97 1.973-4.54 2.96-6.9 2.96-2.77-.197-5.33-1.184-7.1-2.96zm47.56-47.752c-3.95-3.947-3.95-10.064 0-14 3.75-3.947 10.06-3.947 14 0s3.94 10.063 0 14c-1.98 1.973-4.54 2.96-6.9 2.96-2.76 0-5.13-.987-7.1-2.96zM4185.9 647.64c-.6 0-1.18 0-1.97-.198l-1.78-.6c-.6-.198-1.18-.592-1.77-.987s-1-.8-1.58-1.184c-1.78-1.776-2.96-4.34-2.96-6.907 0-.592 0-1.38.2-1.973l.6-1.775c.2-.592.6-1.184 1-1.776s.8-.987 1.18-1.58c.4-.395 1-.8 1.58-1.184s1.18-.592 1.77-.987l1.78-.592a11.97 11.97 0 0 1 3.75 0l1.78.592c.6.198 1.18.592 1.77.987s1 .8 1.58 1.184c.4.395.8.987 1.18 1.58.4.592.6 1.184 1 1.776l.6 1.775c.2.592.2 1.38.2 1.973 0 2.566-1 5.13-2.96 6.907-1.78 1.973-4.34 2.96-6.9 2.96zm322-439.64c-.6 0-1.38 0-1.98-.197l-1.77-.592c-.6-.197-1.2-.592-1.78-.987s-1-.8-1.58-1.184c-.4-.394-.8-.986-1.18-1.578-.4-.592-.6-1.184-1-1.776l-.6-1.776c-.2-.592-.2-1.38-.2-1.973 0-2.565 1-5.13 2.96-6.907.4-.394 1-.8 1.58-1.184s1.2-.592 1.78-.986l1.77-.592c1.38-.198 2.57-.198 3.95 0l1.78.592c.6.197 1.18.592 1.77.986s1 .8 1.58 1.184c1.78 1.776 2.96 4.342 2.96 6.907 0 .592 0 1.38-.2 1.973l-.6 1.776c-.2.592-.6 1.184-1 1.776s-.8.986-1.18 1.578c-1.97 1.776-4.34 2.96-7.1 2.96zm-340.2 330.32c-3.95-3.947-3.95-10.064 0-14s10.06-3.946 14 0 3.95 10.064 0 14c-1.97 1.973-4.34 2.96-6.9 2.96-2.76 0-5.13-.986-7.1-2.96zm47.55-47.556c-3.94-3.946-3.94-10.063 0-14 3.95-3.946 10.07-3.946 14 0a10.13 10.13 0 0 1 0 14.01c-1.97 1.974-4.53 2.96-6.9 2.96-2.57-.197-5.13-1.184-7.1-2.96zm47.76-47.752c-3.95-3.947-3.95-10.064 0-14 3.75-3.946 10.06-3.946 14 0s3.94 10.063 0 14c-1.98 1.973-4.34 2.96-6.9 2.96-2.76 0-5.33-.987-7.1-2.96zm47.55-47.555a10.13 10.13 0 0 1 0-14.01c3.95-3.947 10.07-3.947 14 0 3.95 3.946 3.95 10.063 0 14-1.97 1.973-4.34 2.96-6.9 2.96-2.77 0-5.13-.987-7.1-2.96zm47.56-47.555c-3.95-3.75-3.95-10.064 0-14 3.94-3.947 10.06-3.947 14 0a10.13 10.13 0 0 1 0 14.01c-1.98 1.973-4.54 2.96-6.9 2.96a10.01 10.01 0 0 1-7.1-2.96zm47.55-47.753c-3.94-3.75-3.94-10.063 0-14 3.95-3.946 10.07-3.946 14 0 3.95 3.75 3.95 10.064 0 14-1.97 1.974-4.34 2.96-6.9 2.96a9.99 9.99 0 0 1-7.1-2.96zm47.75-47.555a10.15 10.15 0 0 1 0-14.01c3.95-3.946 10.07-3.946 14.02 0 3.94 3.75 3.94 10.064 0 14-1.98 1.973-4.54 2.96-6.9 2.96-2.76 0-5.33-.987-7.1-2.96zM4127.1 588.84c-.6 0-1.18 0-1.97-.197l-1.78-.592c-.6-.197-1.18-.592-1.77-.987-.6-.394-1-.8-1.58-1.183-1.78-1.776-2.96-4.342-2.96-6.907 0-.592 0-1.38.2-1.973l.6-1.776c.2-.592.6-1.184.98-1.776.4-.592.8-.986 1.2-1.578.4-.395.98-.8 1.58-1.185.6-.394 1.18-.592 1.77-.986l1.78-.592c1.38-.197 2.56-.197 3.94 0l1.78.592c.6.197 1.18.592 1.78.986s.98.8 1.57 1.185c.4.394.8.986 1.2 1.578s.6 1.184 1 1.776l.6 1.776c.2.592.2 1.184.2 1.973 0 2.565-.98 5.13-2.96 6.907-.4.394-.98.8-1.57 1.183-.6.395-1.2.592-1.78.987l-1.78.592c-.78.197-1.38.197-1.97.197zm322-439.84c-.6 0-1.38 0-1.97-.197l-1.78-.592c-.6-.197-1.18-.592-1.77-.987s-1-.8-1.58-1.184c-1.78-1.776-2.96-4.34-2.96-6.906 0-.592 0-1.38.2-1.973l.6-1.776c.2-.592.6-1.184 1-1.776s.8-.987 1.18-1.58 1-.8 1.58-1.183 1.18-.592 1.77-.987l1.78-.592c1.38-.198 2.57-.198 3.95 0l1.77.592c.6.197 1.2.592 1.78.987s1 .8 1.58 1.183.8.987 1.18 1.58c.4.592.6 1.184 1 1.776l.6 1.776c.2.592.2 1.38.2 1.973s0 1.38-.2 1.973l-.6 1.776c-.2.592-.6 1.184-1 1.776s-.8.987-1.18 1.58c-.4.394-1 .8-1.58 1.184s-1.2.592-1.78.986l-1.77.592h-1.98zm-340.2 330.52c-3.95-3.947-3.95-10.064 0-14 3.75-3.947 10.06-3.947 14 0s3.94 10.063 0 14c-1.98 1.973-4.34 2.96-6.9 2.96-2.76 0-5.13-.987-7.1-2.96zm47.55-47.555c-3.75-3.75-3.75-10.064 0-14 3.95-3.947 10.07-3.947 14 0 3.95 3.946 3.95 10.063 0 14-1.97 1.973-4.34 2.96-6.9 2.96-2.57-.198-5.13-1.184-7.1-2.96zm47.56-47.753a10.13 10.13 0 0 1 0-14.01c3.94-3.946 10.06-3.946 14 0 3.75 3.75 3.75 10.064 0 14-1.98 1.973-4.34 2.96-6.9 2.96a10.01 10.01 0 0 1-7.1-2.96zm47.75-47.555c-3.95-3.946-3.95-10.063 0-14 3.75-3.75 10.06-3.75 14 0 3.95 3.947 3.95 10.064 0 14-1.97 1.973-4.34 2.96-6.9 2.96-2.76 0-5.32-.987-7.1-2.96zm47.55-47.555c-3.94-3.946-3.94-10.063 0-14a10.13 10.13 0 0 1 14.01 0c3.95 3.947 3.95 10.064 0 14-1.97 1.973-4.34 2.96-6.9 2.96-2.57-.197-5.13-.987-7.1-2.96zm47.56-47.752c-3.95-3.947-3.95-10.064 0-14s10.06-3.947 14 0 3.95 10.063 0 14c-1.97 1.973-4.34 2.96-6.9 2.96a10.01 10.01 0 0 1-7.1-2.96zm47.75-47.555a10.13 10.13 0 0 1 0-14.01c3.95-3.947 10.07-3.947 14 0 3.95 3.946 3.95 10.063 0 14-1.97 1.973-4.34 2.96-6.9 2.96-2.77 0-5.33-.986-7.1-2.96zM4068.3 530.04c-2.57 0-5.13-.987-6.9-2.96-.4-.395-.8-.986-1.18-1.578-.4-.592-.6-1.184-1-1.776l-.6-1.776c-.2-.592-.2-1.184-.2-1.973 0-.592 0-1.382.2-1.974l.6-1.776c.2-.592.6-1.184 1-1.776s.8-.986 1.18-1.578c2.37-2.368 5.72-3.355 8.88-2.763l1.78.592c.6.198 1.18.592 1.77.987.6.395 1 .8 1.58 1.184.4.395.8.986 1.2 1.578s.6 1.184.98 1.776l.6 1.776c.2.592.2 1.382.2 1.974s0 1.38-.2 1.973l-.6 1.776c-.2.592-.6 1.184-.98 1.776-.4.592-.8.986-1.2 1.578-1.97 1.776-4.54 2.96-7.1 2.96zm322-439.84c-2.56 0-5.13-.987-6.9-2.96-.4-.395-.78-.986-1.18-1.578s-.6-1.184-1-1.776l-.6-1.776c-.2-.592-.2-1.38-.2-1.973s0-1.184.2-1.973l.6-1.776c.2-.592.6-1.184 1-1.776l1.18-1.58c.4-.395 1-.8 1.58-1.184.6-.395 1.2-.592 1.78-.987l1.78-.592a11.89 11.89 0 0 1 3.74 0l1.78.592c.6.197 1.18.592 1.78.987s.98.8 1.58 1.184c.4.395.78.987 1.18 1.58s.6 1.184 1 1.776l.6 1.776c.2.592.2 1.38.2 1.973s0 1.38-.2 1.973l-.6 1.776c-.2.592-.6 1.184-1 1.776l-1.18 1.578c-.4.395-1 .8-1.58 1.184-.6.395-1.2.592-1.78.987l-1.78.592c-.6.197-1.38.197-1.97.197zm-340.2 330.52c-3.94-3.947-3.94-10.064 0-14 3.95-3.947 10.07-3.947 14 0 3.95 3.946 3.95 10.063 0 14-1.97 1.973-4.53 2.96-6.9 2.96-2.76-.197-5.33-.986-7.1-2.96zm47.56-47.753a10.13 10.13 0 0 1 0-14.01c3.95-3.946 10.06-3.946 14 0a10.13 10.13 0 0 1 0 14.01c-1.97 1.973-4.54 2.96-6.9 2.96a10.01 10.01 0 0 1-7.1-2.96zm47.55-47.555a10.15 10.15 0 0 1 0-14.01c3.95-3.946 10.07-3.946 14 0a10.13 10.13 0 0 1 0 14.01c-1.97 1.973-4.53 2.96-6.9 2.96-2.57 0-5.13-.987-7.1-2.96zm47.76-47.555c-3.95-3.946-3.95-10.064 0-14 3.75-3.947 10.06-3.947 14 0s3.94 10.064 0 14c-1.98 1.973-4.54 2.96-6.9 2.96-2.76-.197-5.33-.987-7.1-2.96zm47.55-47.555c-3.94-3.947-3.94-10.064 0-14 3.95-3.947 10.07-3.947 14 0 3.95 3.946 3.95 10.063 0 14-1.97 1.973-4.54 2.96-6.9 2.96-2.77-.198-5.13-1.184-7.1-2.96zm47.56-47.752a10.13 10.13 0 0 1 0-14.01c3.94-3.947 10.06-3.947 14 0a10.13 10.13 0 0 1 0 14.01c-1.98 1.973-4.34 2.96-6.9 2.96a10.01 10.01 0 0 1-7.1-2.959zm47.55-47.555a10.13 10.13 0 0 1 0-14.01c3.95-3.947 10.07-3.947 14 0 3.75 3.75 3.75 10.063 0 14-1.97 1.973-4.34 2.96-6.9 2.96a9.99 9.99 0 0 1-7.1-2.96zM4009.5 471.23c-.6 0-1.4 0-1.98-.197l-1.77-.592c-.6-.197-1.2-.592-1.78-.987s-1-.8-1.58-1.184c-.4-.394-.8-.986-1.18-1.578-.4-.592-.6-1.184-1-1.776l-.6-1.776c-.2-.592-.2-1.38-.2-1.973s0-1.184.2-1.974l.6-1.775c.2-.592.6-1.184 1-1.776s.8-.987 1.18-1.58c.4-.395 1-.8 1.58-1.184s1.18-.592 1.78-.987l1.77-.592a10 10 0 0 1 8.88 2.763c1.78 1.776 2.96 4.34 2.96 6.906 0 .592 0 1.382-.2 1.973l-.6 1.776c-.2.592-.6 1.184-.98 1.776-.4.592-.8.987-1.2 1.58-1.77 1.973-4.34 3.157-6.9 3.157zm322-439.833c-.6 0-1.2 0-1.97-.197l-1.78-.592c-.6-.197-1.18-.592-1.78-.987s-.98-.8-1.57-1.184c-.4-.395-.8-.987-1.2-1.58s-.6-1.184-1-1.776l-.6-1.776c-.2-.592-.2-1.184-.2-1.973 0-.592 0-1.38.2-1.973l.6-1.776c.2-.592.6-1.184 1-1.776s.8-.987 1.2-1.58c.4-.395.98-.8 1.57-1.184.6-.395 1.2-.592 1.78-.987l1.78-.592a11.89 11.89 0 0 1 3.74 0l1.78.592c.6.197 1.18.592 1.78.987s.98.8 1.57 1.184c1.78 1.776 2.96 4.34 2.96 6.906s-.98 5.13-2.96 6.906c-.4.395-.98.8-1.57 1.184-.6.395-1.2.592-1.78.987l-1.78.592c-.4.592-1.18.592-1.77.592z"/><path d="M3991.3 361.92a10.13 10.13 0 0 1 0-14.01c3.95-3.947 10.07-3.947 14 0 3.95 3.946 3.95 10.063 0 14-1.97 1.973-4.54 2.96-6.9 2.96-2.77-.197-5.33-1.184-7.1-2.96zm47.56-47.753a10.13 10.13 0 0 1 0-14.01c3.94-3.946 10.06-3.946 14 0a10.13 10.13 0 0 1 0 14.01c-1.98 1.973-4.54 2.96-6.9 2.96-2.76 0-5.13-.987-7.1-2.96zm47.55-47.555c-3.94-3.946-3.94-10.063 0-14 3.75-3.75 10.07-3.75 14 0 3.95 3.947 3.95 10.064 0 14-1.97 1.973-4.54 2.96-6.9 2.96-2.57 0-5.13-.987-7.1-2.96zm47.56-47.555c-3.95-3.947-3.95-10.064 0-14 3.75-3.75 10.06-3.75 14 0 3.94 3.946 3.94 10.063 0 14-1.98 1.973-4.54 2.96-6.9 2.96-2.56-.198-5.13-.987-7.1-2.96zm47.75-47.752c-3.95-3.947-3.95-10.064 0-14s10.06-3.946 14 0 3.95 10.064 0 14c-1.97 1.973-4.54 2.96-6.9 2.96-2.76 0-5.32-.986-7.1-2.96zm47.55-47.556a10.15 10.15 0 0 1 0-14.01c3.95-3.946 10.07-3.946 14 0a10.13 10.13 0 0 1 0 14.01c-1.97 1.974-4.53 2.96-6.9 2.96a9.99 9.99 0 0 1-7.1-2.96zm47.56-47.555c-3.95-3.947-3.95-10.064 0-14 3.75-3.946 10.06-3.946 14 0s3.95 10.064 0 14c-1.97 1.973-4.54 2.96-6.9 2.96-2.56-.197-5.13-.987-7.1-2.96zM3950.7 412.43c-.6 0-1.18.001-1.97-.197l-1.78-.592c-.6-.197-1.18-.592-1.77-.986s-1-.8-1.58-1.184c-1.78-1.776-2.96-4.342-2.96-6.907 0-.592 0-1.38.2-1.973l.6-1.776c.2-.592.6-1.184 1-1.776s.8-.986 1.18-1.578c.4-.395 1-.8 1.58-1.184s1.18-.592 1.77-.987l1.78-.592a11.97 11.97 0 0 1 3.75 0l1.78.592c.6.197 1.18.592 1.77.987s1 .8 1.58 1.184c.4.394.8.986 1.18 1.578.4.592.6 1.184 1 1.776l.6 1.776c.2.592.2 1.38.2 1.973 0 2.565-1 5.13-2.96 6.907-.4.394-1 .8-1.58 1.184s-1.18.6-1.77.986l-1.78.592c-.6 0-1.18.197-1.78.197zm-18.4-109.5c-3.94-3.946-3.94-10.063 0-14 3.95-3.946 10.07-3.946 14 0 3.95 3.947 3.95 10.064 0 14-1.97 1.973-4.34 2.96-6.9 2.96-2.57 0-5.13-.987-7.1-2.96zm47.75-47.555c-3.94-3.946-3.94-10.063 0-14 3.95-3.946 10.07-3.946 14 0a10.13 10.13 0 0 1 0 14.01c-1.97 1.973-4.53 2.96-6.9 2.96-2.76 0-5.33-.987-7.1-2.96zm47.56-47.555c-3.95-3.946-3.95-10.064 0-14 3.75-3.947 10.06-3.947 14 0s3.95 10.064 0 14c-1.97 1.973-4.54 2.96-6.9 2.96a10.01 10.01 0 0 1-7.1-2.96zm47.55-47.555c-3.94-3.947-3.94-10.064 0-14 3.95-3.947 10.07-3.947 14 0 3.95 3.946 3.95 10.063 0 14-1.97 1.973-4.53 2.96-6.9 2.96-2.57-.198-5.13-1.184-7.1-2.96zm47.76-47.753c-3.95-3.75-3.95-10.063 0-14 3.94-3.947 10.06-3.947 14 0a10.13 10.13 0 0 1 0 14.01c-1.98 1.974-4.54 2.96-6.9 2.96-2.76 0-5.33-.986-7.1-2.96zm47.55-47.555c-3.94-3.75-3.94-10.063 0-14 3.95-3.947 10.07-3.947 14 0 3.75 3.75 3.75 10.064 0 14-1.97 1.973-4.54 2.96-6.9 2.96-2.77 0-5.13-.987-7.1-2.96zm47.56-47.555c-3.95-3.947-3.95-10.064 0-14 3.75-3.946 10.06-3.946 14 0s3.94 10.064 0 14c-1.98 1.973-4.54 2.96-6.9 2.96-2.56-.197-5.13-.987-7.1-2.96zM3891.7 353.43c-.6 0-1.18 0-1.97-.198l-1.78-.592c-.6-.197-1.18-.592-1.77-.986s-1-.8-1.58-1.184c-1.78-1.776-2.96-4.34-2.96-6.906s1-5.13 2.96-6.907a9.99 9.99 0 0 1 8.88-2.762l1.78.592c.6.197 1.18.592 1.77.986s1 .8 1.58 1.184c1.78 1.776 2.96 4.34 2.96 6.907s-1 5.13-2.96 6.906c-.4.395-1 .8-1.58 1.184s-1.18.592-1.77.986l-1.78.592c-.4.198-1 .198-1.78.198zm-18.2-109.33c-3.95-3.946-3.95-10.063 0-14s10.06-3.946 14 0 3.95 10.064 0 14c-1.97 1.973-4.34 2.96-6.9 2.96a10.01 10.01 0 0 1-7.1-2.96zm47.75-47.555c-3.75-3.75-3.75-10.063 0-14 3.95-3.946 10.07-3.946 14 0 3.95 3.947 3.95 10.064 0 14-1.97 1.973-4.34 2.96-6.9 2.96-2.77 0-5.33-.987-7.1-2.96zM3968.8 149a10.13 10.13 0 0 1 0-14.01c3.94-3.946 10.06-3.946 14 0 3.94 3.75 3.94 10.064 0 14-1.98 1.973-4.34 2.96-6.9 2.96-2.76 0-5.13-.987-7.1-2.96zm47.55-47.752c-3.94-3.947-3.94-10.064 0-14a10.13 10.13 0 0 1 14.01 0c3.95 3.947 3.95 10.064 0 14-1.97 1.973-4.34 2.96-6.9 2.96-2.57 0-5.13-.987-7.1-2.96zm47.56-47.556c-3.95-3.947-3.95-10.064 0-14a10.13 10.13 0 0 1 14.01 0c3.94 3.946 3.94 10.063 0 14-1.98 1.973-4.34 2.96-6.9 2.96a10.01 10.01 0 0 1-7.1-2.96zm47.75-47.555c-3.95-3.946-3.95-10.063 0-14s10.06-3.947 14 0 3.95 10.063 0 14c-1.97 1.973-4.34 2.96-6.9 2.96-2.76 0-5.13-.987-7.1-2.96zm47.55-47.555a10.15 10.15 0 0 1 0-14.01c3.95-3.947 10.07-3.947 14 0 3.95 3.946 3.95 10.063 0 14-1.97 1.973-4.53 2.96-6.9 2.96-2.57-.197-5.13-1.184-7.1-2.96zM3832.9 294.63c-.6 0-1.38 0-1.97-.197l-1.78-.592c-.6-.197-1.18-.592-1.77-.987-.6-.394-1-.8-1.58-1.184-.4-.394-.8-.986-1.2-1.578s-.6-1.184-.98-1.776l-.6-1.776c-.2-.592-.2-1.184-.2-1.974 0-.6 0-1.38.2-1.973l.6-1.775c.2-.592.6-1.184.98-1.776.4-.592.8-.987 1.2-1.58 1.77-1.776 4.34-2.96 6.9-2.96 2.57 0 5.13.987 6.9 2.96.4.395.8.987 1.18 1.58.4.592.6 1.184 1 1.776l.6 1.775c.2.592.2 1.382.2 1.973s0 1.382-.2 1.974l-.6 1.776c-.2.592-.6 1.184-1 1.776s-.8.986-1.18 1.578c-1.58 1.974-3.95 2.96-6.7 2.96zm-18.2-109.33c-3.95-3.946-3.95-10.063 0-14a10.13 10.13 0 0 1 14.01 0c3.94 3.947 3.94 10.064 0 14-1.98 1.974-4.34 2.96-6.9 2.96s-5.13-.986-7.1-2.96zm47.55-47.555a10.13 10.13 0 0 1 0-14.01c3.95-3.946 10.07-3.946 14 0a10.13 10.13 0 0 1 0 14.01c-1.97 1.974-4.34 2.96-6.9 2.96a9.99 9.99 0 0 1-7.1-2.96zM3910 90.2a10.15 10.15 0 0 1 0-14.01c3.95-3.947 10.07-3.947 14 0a10.13 10.13 0 0 1 0 14.01c-1.97 1.973-4.34 2.96-6.9 2.96-2.76-.197-5.13-1.184-7.1-2.96zm47.56-47.752c-3.95-3.947-3.95-10.064 0-14 3.75-3.947 10.06-3.947 14 0s3.95 10.063 0 14c-1.97 1.973-4.34 2.96-6.9 2.96a10.01 10.01 0 0 1-7.1-2.96zm47.55-47.555c-3.94-3.947-3.94-10.063 0-14 3.95-3.947 10.07-3.947 14 0 3.95 3.947 3.95 10.064 0 14-1.97 1.973-4.34 2.96-6.9 2.96-2.57 0-5.13-.987-7.1-2.96zm47.76-47.555c-3.75-3.75-3.75-10.064 0-14 3.94-3.946 10.06-3.946 14 0a10.13 10.13 0 0 1 0 14.01c-1.98 1.973-4.34 2.96-6.9 2.96-2.76-.197-5.33-.987-7.1-2.96zm47.55-47.753c-3.75-3.75-3.75-10.063 0-14 3.95-3.946 10.07-3.946 14 0 3.75 3.75 3.75 10.064 0 14-1.97 1.973-4.34 2.96-6.9 2.96-2.57 0-5.13-.987-7.1-2.96zM3774.1 235.82c-.6 0-1.38 0-1.98-.197l-1.77-.592c-.6-.198-1.2-.592-1.78-.987s-.98-.8-1.58-1.184c-.4-.395-.78-.987-1.18-1.58s-.6-1.183-1-1.775l-.6-1.776c-.2-.592-.2-1.382-.2-1.974 0-2.565 1-5.13 2.96-6.906.4-.394 1-.8 1.58-1.184s1.2-.592 1.78-.986l1.77-.592c1.2-.198 2.57-.198 3.75 0l1.78.592c.6.197 1.18.592 1.78.986s.98.8 1.57 1.184c1.78 1.776 2.96 4.34 2.96 6.906s-.98 5.13-2.96 6.907c-.4.394-.98.8-1.57 1.184-.6.394-1.2.592-1.78.986l-1.78.592c-.4.395-1.18.395-1.77.395z"/><path d="M3755.9 126.5a10.15 10.15 0 0 1 0-14.01c3.95-3.946 10.07-3.946 14 0 3.95 3.947 3.95 10.064 0 14-1.97 1.973-4.53 2.96-6.9 2.96-2.57 0-5.13-.987-7.1-2.96zm47.56-47.555a10.13 10.13 0 0 1 0-14.01c3.95-3.947 10.06-3.947 14 0a10.13 10.13 0 0 1 0 14.01c-1.97 1.973-4.54 2.96-6.9 2.96a10.01 10.01 0 0 1-7.1-2.96zM3851.2 31.4c-3.94-3.947-3.94-10.063 0-14 3.75-3.947 10.07-3.947 14 0 3.95 3.947 3.95 10.063 0 14-1.97 1.973-4.54 2.96-6.9 2.96-2.77-.197-5.33-1.184-7.1-2.96zm47.56-47.752c-3.95-3.947-3.95-10.064 0-14 3.75-3.947 10.06-3.947 14 0 3.94 3.75 3.94 10.064 0 14-1.98 1.973-4.54 2.96-6.9 2.96-2.76 0-5.13-.987-7.1-2.96zm47.55-47.555c-3.94-3.946-3.94-10.063 0-14 3.95-3.947 10.07-3.947 14 0 3.95 3.947 3.95 10.064 0 14-1.97 1.973-4.34 2.96-6.9 2.96-2.57 0-5.13-.987-7.1-2.96zm47.75-47.555a10.15 10.15 0 0 1 0-14.01c3.95-3.946 10.07-3.946 14 0a10.13 10.13 0 0 1 0 14.01c-1.97 1.974-4.53 2.96-6.9 2.96-2.76-.197-5.33-1.184-7.1-2.96zm47.56-47.752c-3.95-3.946-3.95-10.064 0-14 3.75-3.947 10.06-3.947 14 0s3.95 10.064 0 14c-1.97 1.973-4.54 2.96-6.9 2.96-2.76 0-5.13-.987-7.1-2.96zM3715.3 177.02c-2.57 0-5.13-.987-6.9-2.96-.4-.395-.8-.986-1.18-1.578-.4-.592-.6-1.184-1-1.776l-.6-1.776c-.2-.592-.2-1.184-.2-1.974 0-.6 0-1.38.2-1.973l.6-1.776c.2-.592.6-1.183 1-1.775s.78-.987 1.18-1.58c1.78-1.776 4.34-2.96 6.9-2.96s5.13.987 6.9 2.96c.4.395.8.987 1.2 1.58s.6 1.183.98 1.775l.6 1.776c.2.592.2 1.382.2 1.973s0 1.382-.2 1.974l-.6 1.776c-.2.592-.6 1.184-.98 1.776-.4.592-.8.986-1.2 1.578-1.77 1.973-4.34 2.96-6.9 2.96zm-18.2-109.315c-3.94-3.947-3.94-10.064 0-14 3.95-3.947 10.07-3.947 14 0a10.13 10.13 0 0 1 0 14.01c-1.97 1.973-4.54 2.96-6.9 2.96-2.77 0-5.13-.987-7.1-2.96zm47.56-47.555c-3.95-3.946-3.95-10.064 0-14 3.94-3.946 10.06-3.946 14 0a10.13 10.13 0 0 1 0 14.01c-1.98 1.973-4.54 2.96-6.9 2.96-2.56-.197-5.13-1.184-7.1-2.96zm47.75-47.752c-3.95-3.947-3.95-10.064 0-14 3.75-3.947 10.06-3.947 14 0s3.95 10.063 0 14c-1.97 1.973-4.54 2.96-6.9 2.96-2.76 0-5.32-.987-7.1-2.96zm47.55-47.555c-3.94-3.947-3.94-10.064 0-14 3.95-3.947 10.07-3.947 14 0 3.95 3.947 3.95 10.064 0 14-1.97 1.973-4.53 2.96-6.9 2.96-2.76 0-5.13-.987-7.1-2.96zm47.56-47.556a10.13 10.13 0 0 1 0-14.01c3.95-3.946 10.06-3.946 14 0a10.13 10.13 0 0 1 0 14.01c-1.97 1.974-4.54 2.96-6.9 2.96-2.56-.197-5.13-.986-7.1-2.96zm47.55-47.555c-3.94-3.946-3.94-10.063 0-14 3.95-3.946 10.07-3.946 14 0a10.13 10.13 0 0 1 0 14.01c-1.97 1.973-4.53 2.96-6.9 2.96-2.57-.197-5.13-1.184-7.1-2.96zm47.76-47.752c-3.95-3.947-3.95-10.064 0-14 3.75-3.947 10.06-3.947 14 0s3.94 10.063 0 14c-1.98 1.973-4.54 2.96-6.9 2.96-2.76 0-5.33-.987-7.1-2.96zM3656.4 118.22c-.6 0-1.18 0-1.97-.197l-1.78-.592c-.6-.198-1.18-.592-1.77-.987s-1-.8-1.58-1.184c-.4-.395-.8-.987-1.18-1.58-.4-.592-.6-1.184-1-1.776l-.6-1.775c-.2-.592-.2-1.382-.2-1.974 0-2.565 1-5.13 2.96-6.906 1.78-1.776 4.34-2.96 6.9-2.96s5.13.987 6.9 2.96c1.78 1.776 2.96 4.34 2.96 6.906 0 .592 0 1.382-.2 1.974l-.6 1.775c-.2.592-.6 1.184-.98 1.776-.4.592-.8.987-1.2 1.58-.4.395-.98.8-1.58 1.184s-1.18.592-1.77.987l-1.78.592c-.2.197-.98.197-1.58.197zM3638.3 8.902c-3.95-3.947-3.95-10.063 0-14s10.06-3.947 14 0a10.13 10.13 0 0 1 0 14.01c-1.97 1.973-4.54 2.96-6.9 2.96-2.76 0-5.13-.987-7.1-2.96zm47.55-47.555c-3.74-3.75-3.74-10.063 0-14 3.95-3.947 10.07-3.947 14 0 3.95 3.947 3.95 10.064 0 14-1.97 1.973-4.34 2.96-6.9 2.96-2.57-.197-5.13-1.184-7.1-2.96zm47.56-47.752a10.13 10.13 0 0 1 0-14.01c3.95-3.946 10.06-3.946 14 0s3.95 10.064 0 14c-1.97 1.973-4.54 2.96-6.9 2.96a10.01 10.01 0 0 1-7.1-2.96zm47.75-47.555c-3.94-3.946-3.94-10.063 0-14a10.13 10.13 0 0 1 14.01 0c3.95 3.947 3.95 10.064 0 14-1.97 1.973-4.54 2.96-6.9 2.96-2.77 0-5.33-.987-7.1-2.96zm47.56-47.555c-3.95-3.946-3.95-10.063 0-14a10.13 10.13 0 0 1 14.01 0 10.13 10.13 0 0 1 0 14.01c-1.98 1.973-4.54 2.96-6.9 2.96-2.56-.197-5.13-.987-7.1-2.96zm47.55-47.752c-3.94-3.947-3.94-10.064 0-14 3.95-3.947 10.07-3.947 14 0 3.95 3.946 3.95 10.063 0 14-1.97 1.973-4.54 2.96-6.9 2.96-2.57 0-5.13-.987-7.1-2.96zm47.75-47.555c-3.94-3.947-3.94-10.064 0-14 3.75-3.947 10.07-3.947 14 0 3.95 3.946 3.95 10.063 0 14-1.97 1.973-4.53 2.96-6.9 2.96-2.76 0-5.33-.986-7.1-2.96zM3597.6 59.417c-.6 0-1.38 0-1.97-.197l-1.78-.592c-.6-.197-1.18-.592-1.77-.987-.6-.395-1-.8-1.58-1.184-.4-.395-.8-.986-1.2-1.578s-.6-1.184-.98-1.776l-.6-1.776c-.2-.592-.2-1.184-.2-1.973 0-.592 0-1.38.2-1.973l.6-1.776c.2-.592.6-1.184.98-1.776.4-.592.8-.986 1.2-1.578.4-.395.98-.8 1.58-1.184s1.18-.592 1.77-.987l1.78-.592c3.15-.592 6.7.395 8.88 2.763.4.395.8.986 1.18 1.578.4.592.6 1.184 1 1.776l.6 1.776c.2.592.2 1.38.2 1.973s0 1.38-.2 1.973l-.6 1.776c-.2.592-.6 1.184-1 1.776s-.8.986-1.18 1.578c-1.78 1.776-4.34 2.96-6.9 2.96zM3538.8.615c-2.57 0-5.13-.987-6.9-2.96-1.77-1.776-2.96-4.34-2.96-6.906 0-.592 0-1.38.2-1.973l.6-1.776c.2-.592.6-1.184 1-1.776s.8-.987 1.18-1.58c1.78-1.776 4.34-2.96 6.9-2.96s5.13.987 6.9 2.96c.4.395.8.987 1.2 1.58s.6 1.184 1 1.776l.6 1.776c.2.592.2 1.38.2 1.973 0 2.565-.98 5.13-2.96 6.906-1.77 1.776-4.34 2.96-6.9 2.96zM4784 2069.6c-3.94-3.95-3.94-10.07 0-14 3.95-3.95 10.07-3.95 14 0a10.13 10.13 0 0 1 0 14.01c-1.97 1.97-4.54 2.96-6.9 2.96-2.77 0-5.33-1-7.1-2.96zm-46.17-45.98c-3.95-3.95-3.95-10.06 0-14 3.75-3.95 10.06-3.95 14 0s3.95 10.06 0 14c-1.97 1.97-4.34 2.96-6.9 2.96-2.56-.2-5.13-1.18-7.1-2.96zm-45.98-46.17c-3.94-3.95-3.94-10.07 0-14 3.95-3.95 10.07-3.95 14 0 3.95 3.94 3.95 10.06 0 14-1.97 1.97-4.54 2.96-6.9 2.96-2.77 0-5.13-1-7.1-2.96zm-45.97-45.98c-3.95-3.95-3.95-10.06 0-14 3.94-3.95 10.06-3.95 14 0s3.94 10.06 0 14c-1.98 1.97-4.35 2.96-6.9 2.96-2.76-.2-5.33-1-7.1-2.96zm-46.18-45.98c-3.94-3.94-3.94-10.06 0-14 3.75-3.94 10.07-3.94 14 0 3.95 3.95 3.95 10.07 0 14-1.97 1.98-4.54 2.96-6.9 2.96-2.57-.2-5.13-1.18-7.1-2.96zm-45.97-46.17c-3.95-3.95-3.95-10.06 0-14 3.94-3.95 10.06-3.95 14 0s3.94 10.06 0 14c-1.98 1.97-4.54 2.96-6.9 2.96-2.76 0-5.13-1-7.1-2.96zm-45.98-45.98c-3.95-3.94-3.95-10.06 0-14 3.75-3.94 10.06-3.94 14 0 3.95 3.95 3.95 10.07 0 14-1.97 1.98-4.54 2.96-6.9 2.96-2.76-.2-5.33-.98-7.1-2.96zm-46.17-45.97c-3.95-3.95-3.95-10.07 0-14 3.74-3.95 10.06-3.95 14 0 3.94 3.94 3.94 10.06 0 14-1.98 1.97-4.54 2.96-6.9 2.96-2.57-.2-5.13-1.2-7.1-2.96zm-45.98-46.18c-3.95-3.94-3.95-10.06 0-14 3.75-3.94 10.06-3.94 14 0 3.95 3.95 3.95 10.07 0 14-1.97 1.98-4.34 2.96-6.9 2.96-2.76 0-5.13-.98-7.1-2.96zm-45.98-45.97c-3.94-3.95-3.94-10.07 0-14 3.75-3.95 10.07-3.95 14 0 3.95 3.94 3.95 10.06 0 14-1.97 1.97-4.54 2.96-6.9 2.96-2.77-.2-5.33-1-7.1-2.96zm-46.17-45.98a10.13 10.13 0 0 1 0-14.01c3.94-3.95 10.06-3.95 14 0s3.94 10.06 0 14c-1.97 1.97-4.34 2.96-6.9 2.96-2.56-.2-5.13-1.18-7.1-2.96zm-45.98-46.17c-3.94-3.95-3.94-10.07 0-14 3.75-3.95 10.07-3.95 14 0 3.95 3.94 3.95 10.06 0 14-1.97 1.97-4.54 2.96-6.9 2.96-2.77 0-5.13-1-7.1-2.96zm-46.17-45.98c-3.75-3.75-3.75-10.06 0-14 3.94-3.95 10.06-3.95 14 0s3.94 10.06 0 14c-1.98 1.97-4.34 2.96-6.9 2.96-2.56-.2-5.13-1-7.1-2.96zm-45.98-45.98a10.13 10.13 0 0 1 0-14.01c3.95-3.94 10.06-3.94 14 0a10.13 10.13 0 0 1 0 14.01c-1.97 1.98-4.54 2.96-6.9 2.96-2.57-.2-5.13-1.18-7.1-2.96zm-45.97-46.17c-3.95-3.75-3.95-10.06 0-14 3.94-3.95 10.06-3.95 14 0 3.95 3.95 3.95 10.06 0 14-1.97 1.97-4.34 2.96-6.9 2.96-2.76 0-5.13-1-7.1-2.96zm-46.18-45.98a10.13 10.13 0 0 1 0-14.01c3.95-3.94 10.06-3.94 14 0a10.13 10.13 0 0 1 0 14.01c-1.97 1.98-4.54 2.96-6.9 2.96-2.56-.2-5.13-.98-7.1-2.96zm-45.97-46.17c-3.95-3.75-3.95-10.06 0-14 3.94-3.95 10.06-3.95 14 0 3.75 3.75 3.75 10.06 0 14-1.97 1.97-4.53 2.96-6.9 2.96-2.57 0-5.13-1-7.1-2.96zm-45.98-45.98c-3.95-3.75-3.95-10.06 0-14 3.94-3.94 10.06-3.94 14 0 3.94 3.95 3.94 10.07 0 14-1.98 1.98-4.54 2.96-6.9 2.96-2.76 0-5.13-.98-7.1-2.96zm-46.18-45.97c-3.94-3.95-3.94-10.07 0-14 3.95-3.95 10.07-3.95 14 0a10.13 10.13 0 0 1 0 14.01c-1.97 1.97-4.53 2.96-6.9 2.96-2.57-.2-5.13-1-7.1-2.96zm-45.97-46.18c-3.95-3.75-3.95-10.06 0-14 3.94-3.94 10.06-3.94 14 0 3.94 3.75 3.94 10.07 0 14-1.98 1.98-4.34 2.96-6.9 2.96a9.98 9.98 0 0 1-7.1-2.96zm-45.98-45.97c-3.94-3.95-3.94-10.07 0-14a10.13 10.13 0 0 1 14.01 0c3.95 3.94 3.95 10.06 0 14-1.97 1.97-4.54 2.96-6.9 2.96-2.76 0-5.32-1-7.1-2.96zm-46.17-45.98c-3.95-3.95-3.95-10.06 0-14 3.75-3.95 10.06-3.95 14 0 3.94 3.75 3.94 10.06 0 14-1.98 1.97-4.34 2.96-6.9 2.96-2.56-.2-5.13-1-7.1-2.96zm-45.98-46.18c-3.95-3.94-3.95-10.06 0-14a10.15 10.15 0 0 1 14.01 0c3.95 3.95 3.95 10.07 0 14-1.97 1.98-4.54 2.96-6.9 2.96a9.98 9.98 0 0 1-7.1-2.96zm-45.98-45.97c-3.94-3.95-3.94-10.07 0-14.012 3.75-3.75 10.07-3.75 14 0 3.95 3.942 3.95 10.062 0 14.012-1.97 1.97-4.34 2.96-6.9 2.96-2.76 0-5.33-1-7.1-2.96zm-46.17-45.978c-3.95-3.946-3.95-10.064 0-14 3.75-3.75 10.06-3.75 14 0 3.95 3.946 3.95 10.064 0 14-1.97 1.973-4.54 2.96-6.9 2.96-2.56-.197-5.13-1.184-7.1-2.96zm-45.98-46.174a10.15 10.15 0 0 1 0-14.01 10.13 10.13 0 0 1 14.01 0c3.95 3.947 3.95 10.064 0 14-1.97 1.973-4.34 2.96-6.9 2.96-2.57 0-5.13-.987-7.1-2.96zm-45.97-45.976c-3.95-3.947-3.95-10.064 0-14 3.75-3.947 10.06-3.947 14 0s3.94 10.063 0 14c-1.98 1.973-4.54 2.96-6.9 2.96-2.76 0-5.33-.986-7.1-2.96zm-46.18-45.977a10.13 10.13 0 0 1 0-14.01 10.13 10.13 0 0 1 14.01 0c3.95 3.947 3.95 10.064 0 14-1.97 1.974-4.34 2.96-6.9 2.96-2.57-.197-5.13-1.184-7.1-2.96zm-45.97-46.174a10.13 10.13 0 0 1 0-14.01c3.94-3.946 10.06-3.946 14 0a10.13 10.13 0 0 1 0 14.01c-1.98 1.974-4.54 2.96-6.9 2.96-2.56 0-5.13-.986-7.1-2.96zm-45.98-45.976a10.13 10.13 0 0 1 0-14.01c3.95-3.947 10.06-3.947 14 0s3.95 10.063 0 14c-1.97 1.973-4.54 2.96-6.9 2.96-2.76 0-5.32-.987-7.1-2.96zm-46.17-45.977a10.13 10.13 0 0 1 0-14.01 10.13 10.13 0 0 1 14.01 0 10.13 10.13 0 0 1 0 14.01c-1.98 1.974-4.34 2.96-6.9 2.96-2.56-.197-5.13-1.184-7.1-2.96zm-45.98-46.173c-3.95-3.947-3.95-10.064 0-14s10.06-3.947 14 0a10.13 10.13 0 0 1 0 14.01c-1.97 1.973-4.54 2.96-6.9 2.96-2.76 0-5.13-.986-7.1-2.96zm-45.98-45.977a10.15 10.15 0 0 1 0-14.01c3.95-3.946 10.07-3.946 14 0a10.13 10.13 0 0 1 0 14.01c-1.97 1.973-4.34 2.96-6.9 2.96-2.76-.197-5.33-.987-7.1-2.96zm-46.17-45.976c-3.95-3.947-3.95-10.064 0-14s10.06-3.946 14 0a10.13 10.13 0 0 1 0 14.011c-1.97 1.973-4.54 2.96-6.9 2.96-2.56-.197-5.13-1.183-7.1-2.96zm-45.98-46.174c-3.94-3.947-3.94-10.064 0-14 3.95-3.947 10.07-3.947 14 0 3.95 3.946 3.95 10.063 0 14-1.97 1.973-4.34 2.96-6.9 2.96-2.77 0-5.13-.987-7.1-2.96zm-45.97-45.977c-3.95-3.946-3.95-10.063 0-14 3.94-3.946 10.06-3.946 14 0a10.13 10.13 0 0 1 0 14.01c-1.98 1.973-4.54 2.96-6.9 2.96-2.76-.197-5.33-.987-7.1-2.96zm-46.18-45.976c-3.94-3.947-3.94-10.064 0-14 3.95-3.947 10.07-3.947 14 0 3.95 3.946 3.95 10.063 0 14-1.97 1.973-4.34 2.96-6.9 2.96-2.57-.198-5.13-1.184-7.1-2.96zM3080.3 365.9c-3.95-3.947-3.95-10.064 0-14 3.94-3.946 10.06-3.946 14 0s3.94 10.063 0 14c-1.98 1.973-4.54 2.96-6.9 2.96-2.76 0-5.13-.987-7.1-2.96zm-45.98-45.977c-3.95-3.946-3.95-10.063 0-14s10.06-3.946 14 0 3.95 10.064 0 14c-1.97 1.974-4.34 2.96-6.9 2.96-2.76-.197-5.32-.986-7.1-2.96zm-46.17-45.976c-3.95-3.946-3.95-10.064 0-14 3.75-3.947 10.06-3.947 14 0s3.94 10.064 0 14c-1.98 1.973-4.54 2.96-6.9 2.96-2.56-.197-5.13-1.184-7.1-2.96zm-45.98-46.174c-3.95-3.946-3.95-10.063 0-14s10.06-3.946 14 0 3.95 10.064 0 14c-1.97 1.973-4.54 2.96-6.9 2.96-2.76 0-5.13-.987-7.1-2.96zM2896 181.798c-3.95-3.947-3.95-10.064 0-14 3.75-3.947 10.06-3.947 14 0s3.94 10.063 0 14c-1.98 1.973-4.54 2.96-6.9 2.96-2.56-.197-5.13-.986-7.1-2.96zm-45.98-46.174c-3.95-3.947-3.95-10.064 0-14 3.75-3.947 10.06-3.947 14 0s3.95 10.063 0 14c-1.97 1.973-4.54 2.96-6.9 2.96a10.01 10.01 0 0 1-7.1-2.96zm-45.98-45.977c-3.94-3.947-3.94-10.064 0-14 3.95-3.947 10.07-3.947 14 0 3.95 3.947 3.95 10.063 0 14-1.97 1.973-4.34 2.96-6.9 2.96-2.77 0-5.13-.987-7.1-2.96zm-46.17-45.977c-3.95-3.75-3.95-10.063 0-14 3.75-3.947 10.06-3.947 14 0s3.95 10.064 0 14c-1.97 1.973-4.54 2.96-6.9 2.96-2.56-.197-5.13-1.184-7.1-2.96zM2711.9-2.504a10.13 10.13 0 0 1 0-14.01c3.95-3.947 10.07-3.947 14 0 3.95 3.947 3.95 10.063 0 14-1.97 1.973-4.34 2.96-6.9 2.96-2.57 0-5.13-.987-7.1-2.96zm-45.97-45.976c-3.95-3.946-3.95-10.063 0-14 3.75-3.946 10.06-3.946 14 0a10.13 10.13 0 0 1 0 14.01c-1.98 1.973-4.54 2.96-6.9 2.96-2.76 0-5.13-.987-7.1-2.96zm-46.18-45.977c-3.94-3.75-3.94-10.064 0-14 3.75-3.947 10.07-3.947 14 0 3.95 3.946 3.95 10.063 0 14-1.97 1.973-4.54 2.96-6.9 2.96-2.57-.197-5.13-1.184-7.1-2.96zm-45.97-46.174a10.13 10.13 0 0 1 0-14.01c3.94-3.946 10.06-3.946 14 0a10.13 10.13 0 0 1 0 14.01c-1.98 1.973-4.34 2.96-6.9 2.96a10.01 10.01 0 0 1-7.1-2.96zm-45.98-45.976c-3.95-3.75-3.95-10.064 0-14 3.75-3.947 10.06-3.947 14 0a10.13 10.13 0 0 1 0 14.01c-1.97 1.973-4.54 2.96-6.9 2.96-2.76 0-5.32-.987-7.1-2.96zm-46.17-45.977a10.13 10.13 0 0 1 0-14.01c3.94-3.946 10.06-3.946 14 0s3.94 10.064 0 14c-1.98 1.973-4.35 2.96-6.9 2.96-2.57-.197-5.13-1.184-7.1-2.96zm-45.98-46.174c-3.95-3.946-3.95-10.063 0-14s10.06-3.946 14 0a10.13 10.13 0 0 1 0 14.01c-1.97 1.974-4.54 2.96-6.9 2.96-2.56 0-5.13-.986-7.1-2.96zm-45.98-45.976c-3.94-3.75-3.94-10.064 0-14 3.95-3.946 10.07-3.946 14 0 3.95 3.75 3.95 10.063 0 14-1.97 1.973-4.34 2.96-6.9 2.96-2.77 0-5.33-.987-7.1-2.96zm-46.17-45.977a10.13 10.13 0 0 1 0-14.01c3.95-3.946 10.06-3.946 14 0a10.13 10.13 0 0 1 0 14.01c-1.97 1.974-4.54 2.96-6.9 2.96-2.56-.197-5.13-1.184-7.1-2.96zm-45.98-46.174c-3.94-3.946-3.94-10.063 0-14 3.95-3.947 10.07-3.947 14 0 3.95 3.75 3.95 10.063 0 14-1.97 1.974-4.34 2.96-6.9 2.96a9.99 9.99 0 0 1-7.1-2.96zm-45.97-45.976c-3.95-3.946-3.95-10.063 0-14 3.94-3.946 10.06-3.946 14 0 3.94 3.75 3.94 10.064 0 14-1.98 1.973-4.54 2.96-6.9 2.96-2.76 0-5.33-.987-7.1-2.96zm-46.18-45.976c-3.94-3.947-3.94-10.064 0-14 3.95-3.947 10.07-3.947 14 0 3.75 3.75 3.75 10.063 0 14-1.97 1.973-4.54 2.96-6.9 2.96-2.57-.197-5.13-1.184-7.1-2.96zm-45.97-46.174c-3.95-3.947-3.95-10.064 0-14 3.74-3.947 10.06-3.947 14 0 3.94 3.75 3.94 10.063 0 14-1.98 1.973-4.35 2.96-6.9 2.96-2.57 0-5.13-.987-7.1-2.96zm-45.98-45.977c-3.95-3.946-3.95-10.063 0-14a10.13 10.13 0 0 1 14.01 0c3.95 3.947 3.95 10.064 0 14-1.97 1.974-4.54 2.96-6.9 2.96-2.76 0-5.32-.986-7.1-2.96z"/><path d="M3386.9 489c-3.95-3.946-3.95-10.064 0-14 3.94-3.946 10.06-3.946 14 0a10.13 10.13 0 0 1 0 14.01c-1.97 1.973-4.54 2.96-6.9 2.96-2.76 0-5.33-.987-7.1-2.96zm-46.18-45.976c-3.94-3.947-3.94-10.064 0-14 3.95-3.947 10.07-3.947 14 0 3.95 3.946 3.95 10.063 0 14-1.97 1.973-4.34 2.96-6.9 2.96-2.57-.197-5.13-1.183-7.1-2.96zm-45.97-46.174c-3.95-3.947-3.95-10.064 0-14 3.94-3.947 10.06-3.947 14 0s3.94 10.063 0 14c-1.98 1.973-4.54 2.96-6.9 2.96-2.76 0-5.13-.987-7.1-2.96zm-45.98-45.977c-3.95-3.946-3.95-10.063 0-14 3.75-3.946 10.07-3.946 14 0 3.95 3.947 3.95 10.064 0 14-1.97 1.974-4.34 2.96-6.9 2.96-2.77 0-5.33-.986-7.1-2.96zm-46.17-45.976c-3.95-3.947-3.95-10.064 0-14 3.94-3.947 10.06-3.947 14 0s3.94 10.063 0 14c-1.98 1.973-4.54 2.96-6.9 2.96-2.56-.198-5.13-1.184-7.1-2.96zm-45.98-46.174c-3.95-3.947-3.95-10.064 0-14s10.06-3.946 14 0 3.95 10.063 0 14c-1.97 1.973-4.34 2.96-6.9 2.96-2.76 0-5.13-.987-7.1-2.96zm-45.98-45.976c-3.94-3.947-3.94-10.064 0-14 3.75-3.946 10.07-3.946 14 0 3.95 3.947 3.95 10.064 0 14-1.97 1.973-4.53 2.96-6.9 2.96-2.76-.197-5.33-.986-7.1-2.96zm-46.17-45.977a10.13 10.13 0 0 1 0-14.01c3.95-3.946 10.06-3.946 14 0s3.95 10.064 0 14c-1.97 1.973-4.54 2.96-6.9 2.96-2.56-.197-5.13-1.184-7.1-2.96zm-45.98-46.174c-3.94-3.946-3.94-10.063 0-14 3.75-3.946 10.07-3.946 14 0 3.95 3.947 3.95 10.064 0 14-1.97 1.973-4.34 2.96-6.9 2.96-2.76 0-5.13-.987-7.1-2.96zM2972.52 74.6c-3.95-3.75-3.95-10.064 0-14 3.75-3.947 10.06-3.947 14 0s3.94 10.064 0 14c-1.98 1.973-4.54 2.96-6.9 2.96-2.76-.197-5.33-.987-7.1-2.96zm-46.18-45.977a10.13 10.13 0 0 1 0-14.01c3.95-3.947 10.07-3.947 14 0a10.13 10.13 0 0 1 0 14.01c-1.97 1.973-4.34 2.96-6.9 2.96-2.57-.197-5.13-1.184-7.1-2.96zm-45.97-46.174c-3.95-3.75-3.95-10.063 0-14 3.75-3.947 10.06-3.947 14 0s3.94 10.064 0 14c-1.98 1.973-4.54 2.96-6.9 2.96-2.76 0-5.13-.987-7.1-2.96zm-46.18-45.976c-3.75-3.75-3.75-10.064 0-14 3.95-3.947 10.07-3.947 14 0 3.95 3.947 3.95 10.064 0 14-1.97 1.973-4.34 2.96-6.9 2.96-2.57-.197-5.13-.987-7.1-2.96zm-45.97-46.174c-3.95-3.75-3.95-10.063 0-14 3.94-3.946 10.06-3.946 14 0a10.13 10.13 0 0 1 0 14.01c-1.98 1.973-4.54 2.96-6.9 2.96a10.01 10.01 0 0 1-7.1-2.96zm-45.98-45.977c-3.75-3.75-3.75-10.063 0-14 3.95-3.947 10.06-3.947 14 0s3.95 10.063 0 14c-1.97 1.974-4.34 2.96-6.9 2.96-2.76 0-5.13-.986-7.1-2.96zm-46.17-45.976a10.13 10.13 0 0 1 0-14.01c3.94-3.946 10.06-3.946 14 0a10.13 10.13 0 0 1 0 14.01c-1.98 1.973-4.54 2.96-6.9 2.96-2.56-.197-5.13-.987-7.1-2.96zm-45.98-46.174c-3.95-3.75-3.95-10.063 0-14s10.06-3.946 14 0c3.95 3.75 3.95 10.064 0 14-1.97 1.974-4.34 2.96-6.9 2.96s-5.13-.986-7.1-2.96zm-45.98-45.976a10.13 10.13 0 0 1 0-14.01c3.95-3.947 10.07-3.947 14 0 3.95 3.946 3.95 10.063 0 14-1.97 1.973-4.53 2.96-6.9 2.96-2.77 0-5.13-.987-7.1-2.96zm-46.17-45.977c-3.95-3.946-3.95-10.063 0-14s10.06-3.946 14 0a10.13 10.13 0 0 1 0 14.01c-1.97 1.974-4.54 2.96-6.9 2.96-2.56-.197-5.13-.986-7.1-2.96zm-45.98-46.173c-3.94-3.947-3.94-10.064 0-14 3.95-3.947 10.07-3.947 14 0 3.95 3.75 3.95 10.063 0 14-1.97 1.973-4.34 2.96-6.9 2.96a9.99 9.99 0 0 1-7.1-2.96zM2466-431.92c-3.95-3.947-3.95-10.064 0-14a10.13 10.13 0 0 1 14.01 0c3.94 3.946 3.94 10.063 0 14-1.98 1.973-4.54 2.96-6.9 2.96-2.76 0-5.33-.987-7.1-2.96zm-46.18-45.976c-3.94-3.947-3.94-10.064 0-14 3.75-3.946 10.07-3.946 14 0 3.95 3.75 3.95 10.064 0 14-1.97 1.973-4.34 2.96-6.9 2.96-2.57-.197-5.13-1.183-7.1-2.96zm-45.97-46.174c-3.95-3.947-3.95-10.064 0-14 3.94-3.947 10.06-3.947 14 0 3.94 3.75 3.94 10.063 0 14-1.98 1.973-4.54 2.96-6.9 2.96a10.01 10.01 0 0 1-7.1-2.96zm-45.98-45.977c-3.95-3.946-3.95-10.063 0-14 3.75-3.75 10.06-3.75 14 0 3.95 3.947 3.95 10.064 0 14-1.97 1.973-4.34 2.96-6.9 2.96-2.76 0-5.32-.987-7.1-2.96zm-46.17-45.976c-3.95-3.947-3.95-10.064 0-14 3.75-3.75 10.06-3.75 14 0 3.94 3.946 3.94 10.063 0 14-1.98 1.973-4.54 2.96-6.9 2.96-2.57-.198-5.13-1.184-7.1-2.96zm-45.98-46.174a10.13 10.13 0 0 1 0-14.01 10.13 10.13 0 0 1 14.01 0c3.95 3.946 3.95 10.063 0 14-1.97 1.973-4.34 2.96-6.9 2.96a10.01 10.01 0 0 1-7.1-2.96zM4445.4 3871.9c-3.94-3.94-3.94-10.06 0-14 3.75-3.94 10.07-3.94 14 0 3.95 3.95 3.95 10.07 0 14-1.97 1.98-4.34 2.96-6.9 2.96-2.76 0-5.13-.98-7.1-2.96zm-46.17-45.97a10.13 10.13 0 0 1 0-14.01c3.95-3.95 10.06-3.95 14 0 3.95 3.94 3.95 10.06 0 14-1.97 1.97-4.54 2.96-6.9 2.96-2.56-.2-5.13-1.2-7.1-2.96zm-45.98-46.18c-3.94-3.94-3.94-10.06 0-14 3.75-3.94 10.07-3.94 14 0 3.95 3.95 3.95 10.07 0 14-1.97 1.98-4.34 2.96-6.9 2.96-2.57 0-5.13-.98-7.1-2.96zm-45.97-45.97c-3.95-3.95-3.95-10.07 0-14 3.75-3.95 10.06-3.95 14 0 3.94 3.94 3.94 10.06 0 14-1.98 1.97-4.54 2.96-6.9 2.96-2.76 0-5.33-1-7.1-2.96zm-46.18-45.98c-3.94-3.95-3.94-10.06 0-14 3.95-3.95 10.07-3.95 14 0 3.95 3.95 3.95 10.06 0 14-1.97 1.97-4.34 2.96-6.9 2.96-2.57-.2-5.13-1.18-7.1-2.96zm-45.97-46.17c-3.95-3.95-3.95-10.07 0-14 3.75-3.95 10.06-3.95 14 0 3.94 3.94 3.94 10.06 0 14-1.98 1.97-4.54 2.96-6.9 2.96-2.56 0-5.13-1-7.1-2.96zm-45.98-45.98c-3.95-3.95-3.95-10.06 0-14 3.75-3.95 10.06-3.95 14 0s3.95 10.06 0 14c-1.97 1.97-4.54 2.96-6.9 2.96-2.77 0-5.33-1-7.1-2.96zm-46.17-45.98c-3.95-3.94-3.95-10.06 0-14 3.75-3.94 10.06-3.94 14 0 3.94 3.95 3.94 10.07 0 14-1.98 1.98-4.34 2.96-6.9 2.96-2.56-.2-5.13-1.18-7.1-2.96zM4077 3503.5a10.13 10.13 0 0 1 0-14.01c3.95-3.95 10.06-3.95 14 0s3.95 10.06 0 14c-1.97 1.97-4.34 2.96-6.9 2.96s-5.13-1-7.1-2.96zm-45.98-45.98a10.15 10.15 0 0 1 0-14.01c3.95-3.94 10.07-3.94 14 0a10.13 10.13 0 0 1 0 14.01c-1.97 1.98-4.53 2.96-6.9 2.96-2.76 0-5.33-.98-7.1-2.96zm-46.17-45.97c-3.95-3.75-3.95-10.07 0-14 3.75-3.95 10.06-3.95 14 0 3.95 3.94 3.95 10.06 0 14-1.97 1.97-4.54 2.96-6.9 2.96-2.56-.2-5.13-1.2-7.1-2.96zm-45.98-46.18c-3.75-3.75-3.75-10.06 0-14 3.95-3.94 10.07-3.94 14 0 3.95 3.95 3.95 10.07 0 14-1.97 1.98-4.34 2.96-6.9 2.96-2.57 0-5.13-.98-7.1-2.96zm-45.97-45.97a10.13 10.13 0 0 1 0-14.01c3.94-3.95 10.06-3.95 14 0a10.13 10.13 0 0 1 0 14.01c-1.98 1.97-4.54 2.96-6.9 2.96-2.76 0-5.33-1-7.1-2.96zm-46.18-45.98c-3.94-3.75-3.94-10.06 0-14 3.95-3.95 10.07-3.95 14 0 3.95 3.95 3.95 10.06 0 14-1.97 1.97-4.34 2.96-6.9 2.96-2.57-.2-5.13-1.18-7.1-2.96zm-45.97-46.17c-3.95-3.95-3.95-10.07 0-14 3.94-3.95 10.06-3.95 14 0a10.13 10.13 0 0 1 0 14.01c-1.98 1.97-4.54 2.96-6.9 2.96-2.76 0-5.13-1-7.1-2.96zm-45.98-45.98c-3.95-3.95-3.95-10.06 0-14s10.06-3.95 14 0c3.95 3.75 3.95 10.06 0 14-1.97 1.97-4.34 2.96-6.9 2.96-2.76 0-5.32-1-7.1-2.96zm-46.17-45.98c-3.95-3.94-3.95-10.06 0-14 3.94-3.94 10.06-3.94 14 0 3.94 3.75 3.94 10.07 0 14-1.98 1.98-4.54 2.96-6.9 2.96-2.56-.2-5.13-1.18-7.1-2.96zm-45.98-46.17c-3.95-3.95-3.95-10.06 0-14s10.06-3.95 14 0a10.13 10.13 0 0 1 0 14.01c-1.97 1.97-4.54 2.96-6.9 2.96-2.76 0-5.13-1-7.1-2.96zm-45.98-45.98c-3.94-3.94-3.94-10.06 0-14 3.95-3.94 10.07-3.94 14 0 3.95 3.75 3.95 10.07 0 14-1.97 1.98-4.34 2.96-6.9 2.96-2.76-.2-5.33-.98-7.1-2.96zm-46.17-45.97c-3.95-3.95-3.95-10.07 0-14a10.13 10.13 0 0 1 14.01 0c3.95 3.94 3.95 10.06 0 14-1.97 1.97-4.54 2.96-6.9 2.96-2.56-.2-5.13-1.2-7.1-2.96zM3524.5 2951c-3.94-3.94-3.94-10.06 0-14 3.75-3.94 10.07-3.94 14 0 3.95 3.75 3.95 10.07 0 14-1.97 1.98-4.34 2.96-6.9 2.96-2.77 0-5.13-.98-7.1-2.96zm-45.97-45.97c-3.95-3.95-3.95-10.07 0-14a10.13 10.13 0 0 1 14.01 0c3.94 3.94 3.94 10.06 0 14-1.98 1.97-4.54 2.96-6.9 2.96-2.76-.2-5.33-1-7.1-2.96zm-46.18-46.18c-3.94-3.94-3.94-10.06 0-14a10.13 10.13 0 0 1 14.01 0c3.95 3.95 3.95 10.07 0 14-1.97 1.98-4.34 2.96-6.9 2.96-2.57 0-5.13-.98-7.1-2.96zm-45.97-45.97c-3.95-3.95-3.95-10.07 0-14 3.75-3.95 10.06-3.95 14 0 3.94 3.75 3.94 10.06 0 14-1.98 1.97-4.54 2.96-6.9 2.96-2.76 0-5.13-1-7.1-2.96zm-46.18-45.98a10.13 10.13 0 0 1 0-14.01 10.13 10.13 0 0 1 14.01 0c3.95 3.95 3.95 10.06 0 14-1.97 1.97-4.34 2.96-6.9 2.96-2.57-.2-5.13-1-7.1-2.96zm-45.97-46.17c-3.95-3.95-3.95-10.07 0-14 3.75-3.75 10.06-3.75 14 0 3.94 3.94 3.94 10.06 0 14-1.98 1.97-4.54 2.96-6.9 2.96-2.56 0-5.13-1-7.1-2.96zm-45.98-45.98a10.13 10.13 0 0 1 0-14.01c3.95-3.95 10.06-3.95 14 0s3.95 10.06 0 14c-1.97 1.97-4.54 2.96-6.9 2.96-2.76 0-5.13-1-7.1-2.96zm-46.17-45.98a10.13 10.13 0 0 1 0-14.01 10.13 10.13 0 0 1 14.01 0 10.13 10.13 0 0 1 0 14.01c-1.98 1.98-4.35 2.96-6.9 2.96-2.57-.2-5.13-.98-7.1-2.96zm-45.98-46.17c-3.95-3.95-3.95-10.06 0-14 3.75-3.95 10.06-3.95 14 0s3.95 10.06 0 14c-1.97 1.97-4.54 2.96-6.9 2.96-2.56 0-5.13-1-7.1-2.96zm-45.98-45.98a10.13 10.13 0 0 1 0-14.01c3.95-3.94 10.07-3.94 14 0a10.13 10.13 0 0 1 0 14.01c-1.97 1.98-4.34 2.96-6.9 2.96-2.77 0-5.13-.98-7.1-2.96zm-46.17-45.97c-3.95-3.95-3.95-10.07 0-14 3.95-3.95 10.06-3.95 14 0a10.13 10.13 0 0 1 0 14.01c-1.97 1.97-4.54 2.96-6.9 2.96-2.56-.2-5.13-1.2-7.1-2.96zm-45.98-46.18a10.13 10.13 0 0 1 0-14.01c3.95-3.94 10.07-3.94 14 0 3.95 3.95 3.95 10.07 0 14-1.97 1.98-4.34 2.96-6.9 2.96-2.57 0-5.13-.98-7.1-2.96zM2972 2398.5a10.13 10.13 0 0 1 0-14.01c3.94-3.95 10.06-3.95 14 0a10.13 10.13 0 0 1 0 14.01c-1.98 1.97-4.54 2.96-6.9 2.96-2.76 0-5.33-1-7.1-2.96zm-46.18-45.98c-3.94-3.95-3.94-10.06 0-14 3.95-3.95 10.07-3.95 14 0 3.95 3.95 3.95 10.06 0 14-1.97 1.97-4.34 2.96-6.9 2.96-2.57-.2-5.13-1.18-7.1-2.96zm-45.97-46.17a10.13 10.13 0 0 1 0-14.01c3.94-3.95 10.06-3.95 14 0a10.13 10.13 0 0 1 0 14.01c-1.98 1.97-4.54 2.96-6.9 2.96-2.57 0-5.13-1-7.1-2.96zm-45.98-45.98c-3.95-3.95-3.95-10.06 0-14s10.06-3.95 14 0 3.95 10.06 0 14c-1.97 1.97-4.34 2.96-6.9 2.96-2.76 0-5.32-1-7.1-2.96zm-46.17-45.98c-3.95-3.94-3.95-10.06 0-14 3.94-3.94 10.06-3.94 14 0 3.94 3.95 3.94 10.07 0 14-1.98 1.98-4.54 2.96-6.9 2.96-2.57-.2-5.13-1.18-7.1-2.96zm-45.98-46.17c-3.95-3.95-3.95-10.06 0-14s10.06-3.95 14 0a10.13 10.13 0 0 1 0 14.01c-1.97 1.97-4.54 2.96-6.9 2.96-2.56 0-5.13-1-7.1-2.96zm-45.98-45.98c-3.94-3.94-3.94-10.06 0-14 3.75-3.94 10.07-3.94 14 0 3.95 3.95 3.95 10.07 0 14-1.97 1.98-4.34 2.96-6.9 2.96-2.77 0-5.33-.98-7.1-2.96zm-46.17-45.97c-3.95-3.95-3.95-10.07 0-14 3.95-3.95 10.06-3.95 14 0 3.95 3.94 3.95 10.06 0 14-1.97 1.97-4.54 2.96-6.9 2.96-2.56-.2-5.13-1.2-7.1-2.96zm-45.98-46.18c-3.94-3.94-3.94-10.06 0-14 3.75-3.94 10.07-3.94 14 0 3.95 3.95 3.95 10.07 0 14-1.97 1.98-4.34 2.96-6.9 2.96-2.57 0-5.13-.98-7.1-2.96zm-45.97-45.97c-3.95-3.95-3.95-10.07 0-14 3.75-3.95 10.06-3.95 14 0 3.94 3.94 3.94 10.06 0 14-1.98 1.97-4.54 2.96-6.9 2.96-2.76 0-5.33-1-7.1-2.96zm-46.18-45.98c-3.94-3.95-3.94-10.06 0-14 3.95-3.95 10.07-3.95 14 0 3.95 3.95 3.95 10.06 0 14-1.97 1.97-4.34 2.96-6.9 2.96-2.57-.2-5.13-1.2-7.1-2.96zm-45.97-46.17c-3.95-3.95-3.95-10.07 0-14 3.74-3.95 10.06-3.95 14 0 3.94 3.94 3.94 10.06 0 14-1.98 1.97-4.54 2.96-6.9 2.96-2.76 0-5.13-1-7.1-2.96zM2419.5 1846c-3.95-3.95-3.95-10.06 0-14 3.75-3.95 10.06-3.95 14 0s3.95 10.06 0 14c-1.97 1.97-4.54 2.96-6.9 2.96-2.76 0-5.33-1-7.1-2.96zm-46.2-46c-3.95-3.94-3.95-10.06 0-14 3.74-3.75 10.06-3.75 14 0a10.15 10.15 0 0 1 0 14.01c-1.98 1.98-4.54 2.96-6.9 2.96-2.57-.2-5.13-1.18-7.1-2.96zm-45.98-46.17a10.13 10.13 0 0 1 0-14.01c3.95-3.95 10.06-3.95 14 0 3.95 3.94 3.95 10.06 0 14-1.97 1.97-4.34 2.96-6.9 2.96-2.76 0-5.13-1-7.1-2.96zm-45.98-45.98a10.13 10.13 0 0 1 0-14.01c3.95-3.94 10.07-3.94 14 0a10.13 10.13 0 0 1 0 14.01c-1.97 1.98-4.54 2.96-6.9 2.96-2.77 0-5.33-.98-7.1-2.96zm-46.17-46.17c-3.95-3.75-3.95-10.07 0-14 3.75-3.95 10.06-3.95 14 0a10.13 10.13 0 0 1 0 14.01c-1.97 1.97-4.54 2.96-6.9 2.96-2.56 0-5.13-1-7.1-2.96zm-45.98-45.98c-3.75-3.75-3.75-10.06 0-14 3.95-3.94 10.07-3.94 14 0a10.13 10.13 0 0 1 0 14.01c-1.97 1.98-4.34 2.96-6.9 2.96-2.77 0-5.13-.98-7.1-2.96zm-45.97-45.97c-3.95-3.95-3.95-10.07 0-14.02 3.94-3.94 10.06-3.94 14 0a10.16 10.16 0 0 1 0 14.02c-1.98 1.97-4.54 2.96-6.9 2.96-2.76 0-5.33-1-7.1-2.96zm-46.18-46.18c-3.94-3.75-3.94-10.06 0-14 3.95-3.95 10.07-3.95 14 0 3.95 3.75 3.95 10.07 0 14-1.97 1.97-4.34 2.96-6.9 2.96-2.57 0-5.13-1-7.1-2.96zm-45.97-45.98c-3.95-3.94-3.95-10.06 0-14 3.94-3.94 10.06-3.94 14 0a10.15 10.15 0 0 1 0 14.01c-1.98 1.98-4.54 2.96-6.9 2.96-2.76 0-5.13-.98-7.1-2.96zm-46.18-45.97c-3.95-3.95-3.95-10.07 0-14 3.95-3.95 10.06-3.95 14 0 3.95 3.75 3.95 10.06 0 14-1.97 1.97-4.34 2.96-6.9 2.96s-5.13-1-7.1-2.96zm-45.97-46.18c-3.95-3.94-3.95-10.06 0-14 3.94-3.94 10.06-3.94 14 0 3.95 3.75 3.95 10.07 0 14-1.97 1.98-4.53 2.96-6.9 2.96-2.57 0-5.13-.98-7.1-2.96zm-45.98-45.97a10.13 10.13 0 0 1 0-14.01c3.94-3.95 10.06-3.95 14 0a10.13 10.13 0 0 1 0 14.01c-1.97 1.97-4.54 2.96-6.9 2.96-2.76 0-5.13-1-7.1-2.96zm-46.18-45.98a10.15 10.15 0 0 1 0-14.01c3.75-3.94 10.07-3.94 14 0 3.75 3.75 3.75 10.07 0 14-1.97 1.97-4.53 2.96-6.9 2.96-2.57-.2-5.13-1-7.1-2.96zm-45.97-46.17c-3.95-3.95-3.95-10.07 0-14 3.75-3.75 10.06-3.75 14 0a10.13 10.13 0 0 1 0 14.01c-1.98 1.97-4.54 2.96-6.9 2.96-2.56 0-5.13-1-7.1-2.96zm-45.98-45.98a10.13 10.13 0 0 1 0-14.01c3.95-3.95 10.07-3.95 14 0 3.75 3.75 3.75 10.06 0 14-1.97 1.97-4.34 2.96-6.9 2.96-2.77 0-5.14-1-7.1-2.96zm-46.17-45.98c-3.95-3.94-3.95-10.06 0-14 3.75-3.74 10.06-3.74 14 0a10.13 10.13 0 0 1 0 14.01c-1.98 1.98-4.54 2.96-6.9 2.96-2.56-.2-5.13-.98-7.1-2.96zm-45.98-46.17a10.13 10.13 0 0 1 0-14.01c3.75-3.75 10.06-3.75 14 0a10.13 10.13 0 0 1 0 14.01c-1.97 1.97-4.34 2.96-6.9 2.96s-5.13-1-7.1-2.96zm-45.98-45.98c-3.94-3.94-3.94-10.06 0-14 3.95-3.94 10.07-3.94 14 0a10.13 10.13 0 0 1 0 14.01c-1.97 1.98-4.53 2.96-6.9 2.96-2.76 0-5.33-.98-7.1-2.96zm-46.17-45.97a10.13 10.13 0 0 1 0-14.01c3.95-3.75 10.06-3.75 14 0 3.95 3.94 3.95 10.06 0 14-1.97 1.97-4.34 2.96-6.9 2.96-2.56-.2-5.13-1-7.1-2.96zm-45.98-46.176a10.15 10.15 0 0 1 0-14.01c3.75-3.946 10.07-3.946 14 0a10.13 10.13 0 0 1 0 14.01c-1.97 1.973-4.53 2.96-6.9 2.96-2.57 0-5.13-.987-7.1-2.96zm-45.97-45.976c-3.95-3.947-3.95-10.064 0-14 3.75-3.947 10.06-3.947 14 0a10.13 10.13 0 0 1 0 14.01c-1.98 1.973-4.54 2.96-6.9 2.96-2.76 0-5.33-.987-7.1-2.96zm-46.18-45.977a10.13 10.13 0 0 1 0-14.01c3.75-3.946 10.07-3.946 14 0a10.13 10.13 0 0 1 0 14.01c-1.97 1.973-4.53 2.96-6.9 2.96-2.57-.197-5.13-1.184-7.1-2.96zm-45.97-46.174a10.13 10.13 0 0 1 0-14.01c3.94-3.946 10.06-3.946 14 0s3.94 10.064 0 14c-1.98 1.973-4.34 2.96-6.9 2.96a10.01 10.01 0 0 1-7.1-2.96zm-45.98-45.976c-3.95-3.947-3.95-10.064 0-14 3.75-3.947 10.06-3.947 14 0a10.13 10.13 0 0 1 0 14.01c-1.97 1.973-4.54 2.96-6.9 2.96-2.76 0-5.32-.987-7.1-2.96zm-46.17-45.977c-3.95-3.946-3.95-10.063 0-14 3.75-3.946 10.06-3.946 14 0a10.13 10.13 0 0 1 0 14.01c-1.98 1.974-4.54 2.96-6.9 2.96-2.56-.197-5.13-1.184-7.1-2.96zM1268.3 694.8a10.13 10.13 0 0 1 0-14.01c3.75-3.946 10.06-3.946 14 0s3.95 10.064 0 14c-1.97 1.974-4.34 2.96-6.9 2.96s-5.13-.986-7.1-2.96zm-45.98-45.976c-3.94-3.946-3.94-10.064 0-14 3.75-3.947 10.07-3.947 14 0a10.13 10.13 0 0 1 0 14.01c-1.97 1.973-4.53 2.96-6.9 2.96-2.76 0-5.33-.987-7.1-2.96zM6092.2 1126.4c-3.95-3.95-3.95-10.07 0-14 3.75-3.95 10.06-3.95 14 0 3.95 3.94 3.95 10.06 0 14-1.97 1.97-4.54 2.96-6.9 2.96-2.76 0-5.32-1-7.1-2.96zm-46.17-45.98a10.13 10.13 0 0 1 0-14.01 10.13 10.13 0 0 1 14.01 0c3.94 3.95 3.94 10.06 0 14-1.98 1.97-4.34 2.96-6.9 2.96-2.56-.2-5.13-1-7.1-2.96zm-45.98-46.17c-3.95-3.95-3.95-10.07 0-14 3.95-3.95 10.06-3.95 14 0a10.13 10.13 0 0 1 0 14.01c-1.97 1.97-4.54 2.96-6.9 2.96-2.56 0-5.13-1-7.1-2.96zm-45.98-45.98a10.13 10.13 0 0 1 0-14.01c3.95-3.946 10.07-3.946 14 0 3.95 3.947 3.95 10.064 0 14-1.97 1.973-4.34 2.96-6.9 2.96-2.76 0-5.33-.987-7.1-2.96zm-46.17-45.976a10.13 10.13 0 0 1 0-14.01c3.95-3.947 10.06-3.947 14 0a10.13 10.13 0 0 1 0 14.01c-1.97 1.973-4.54 2.96-6.9 2.96-2.56-.198-5.13-1.184-7.1-2.96zm-45.98-46.174c-3.94-3.947-3.94-10.064 0-14 3.95-3.947 10.07-3.947 14 0a10.13 10.13 0 0 1 0 14.01c-1.97 1.973-4.54 2.96-6.9 2.96-2.57 0-5.13-.987-7.1-2.96zm-45.97-45.977a10.13 10.13 0 0 1 0-14.01c3.94-3.946 10.06-3.946 14 0a10.13 10.13 0 0 1 0 14.01c-1.98 1.974-4.54 2.96-6.9 2.96-2.76 0-5.33-.986-7.1-2.96zm-46.18-45.976c-3.94-3.947-3.94-10.064 0-14 3.95-3.947 10.07-3.947 14 0a10.13 10.13 0 0 1 0 14.01c-1.97 1.973-4.54 2.96-6.9 2.96-2.57-.198-5.13-1.184-7.1-2.96zm-45.97-46.174c-3.95-3.947-3.95-10.064 0-14 3.94-3.946 10.06-3.946 14 0s3.94 10.063 0 14c-1.98 1.973-4.34 2.96-6.9 2.96a10.01 10.01 0 0 1-7.1-2.96zm-45.98-45.976c-3.95-3.947-3.95-10.064 0-14s10.06-3.946 14 0a10.13 10.13 0 0 1 0 14.011c-1.97 1.973-4.54 2.96-6.9 2.96-2.76 0-5.32-.986-7.1-2.96zM306.68 414c-3.947-3.946-3.947-10.063 0-14 3.75-3.946 10.063-3.946 14 0s3.946 10.064 0 14c-1.974 1.974-4.54 2.96-6.907 2.96-2.762 0-5.328-.986-7.103-2.96zm45.976-45.976a10.13 10.13 0 0 1 0-14.01c3.75-3.947 10.064-3.947 14 0s3.947 10.063 0 14c-1.973 1.973-4.34 2.96-6.906 2.96-2.565-.198-5.13-1.184-7.104-2.96zm45.977-46.174c-3.947-3.946-3.947-10.063 0-14 3.75-3.946 10.063-3.946 14 0a10.13 10.13 0 0 1 0 14.01c-1.973 1.973-4.538 2.96-6.906 2.96-2.565 0-5.13-.987-7.103-2.96z"/></g></svg>
