<?xml version="1.0" encoding="utf-8"?>
<!-- Generator: Adobe Illustrator 16.0.0, SVG Export Plug-In . SVG Version: 6.00 Build 0)  -->
<!DOCTYPE svg PUBLIC "-//W3C//DTD SVG 1.1//EN" "http://www.w3.org/Graphics/SVG/1.1/DTD/svg11.dtd">
<svg version="1.1" id="Layer_1" xmlns="http://www.w3.org/2000/svg" xmlns:xlink="http://www.w3.org/1999/xlink" x="0px" y="0px"
	 width="24px" height="24px" viewBox="0 0 75 75" enable-background="new 0 0 75 75" xml:space="preserve">
<path fill="#DFA300" d="M44.074,33.582l-0.84-0.84c-3.824-3.824-4.691-7.539-0.004-12.23L56.996,6.746
	c1-0.996,1.793-0.812,2.605,0.004l0.18,0.18c0.816,0.812,1,1.609,0,2.605L46.309,23.008l2.355,2.355l13.477-13.472
	c1-1,1.789-0.813,2.605,0l0.18,0.179c0.816,0.817,1,1.606,0.004,2.606L51.453,28.152l2.355,2.356l13.473-13.473
	c1-1,1.793-0.816,2.605,0l0.18,0.18c0.816,0.816,1,1.609,0,2.609L56.305,33.582C51.613,38.277,47.895,37.402,44.074,33.582z
	 M64.574,59.449c2.148,2.148,1.746,3.852-0.004,5.602l-0.382,0.383c-1.75,1.755-3.454,2.148-5.603,0.005L37.973,44.82l-4.082,4.082
	L6.711,21.723c-3.613-3.614-2.941-6.477,0.004-9.422l0.648-0.649c2.942-2.941,5.805-3.617,9.418,0L64.574,59.449z M15.316,67.469
	c-2.148,2.148-3.851,1.75-5.601,0l-0.383-0.383c-1.75-1.75-2.148-3.453-0.004-5.602l15.57-15.566l5.989,5.984L15.316,67.469z
	 M73.07,22.82c2.574-2.574,2.574-6.035,0-8.609l-0.18-0.18c-0.961-0.961-2.02-1.566-3.16-1.808
	c-0.242-1.114-0.848-2.196-1.805-3.157l-0.18-0.179c-0.961-0.961-2.02-1.567-3.156-1.809c-0.246-1.113-0.848-2.199-1.809-3.16
	l-0.176-0.176c-1.277-1.269-2.727-1.922-4.301-1.922c-1.086,0-2.719,0.336-4.309,1.926L40.234,17.512
	c-2.379,2.375-3.809,4.828-4.273,7.324L19.777,8.656c-2.461-2.461-5.058-3.707-7.722-3.707c-2.684,0-5.2,1.211-7.696,3.707
	L3.707,9.305c-2.348,2.347-3.559,4.715-3.695,7.226c-0.157,2.832,1.086,5.586,3.695,8.192l18.191,18.195L6.332,58.484
	c-1.91,1.91-2.82,3.988-2.699,6.18c0.105,1.938,0.988,3.711,2.699,5.422l0.387,0.383c1.797,1.797,3.746,2.711,5.789,2.711
	c2.058,0,4.015-0.91,5.808-2.707l19.657-19.648l17.613,17.614c1.797,1.796,3.754,2.71,5.809,2.71c2.047,0,3.996-0.91,5.794-2.71
	l0.386-0.388c1.707-1.711,2.59-3.484,2.699-5.418c0.121-2.191-0.789-4.27-2.699-6.18l-15.59-15.59c2.5-0.457,4.906-1.867,7.32-4.277
	L73.07,22.82z"/>
</svg>